<?xml version="1.0" encoding="utf-8" standalone="no"?>
<!DOCTYPE svg PUBLIC "-//W3C//DTD SVG 1.1//EN"
  "http://www.w3.org/Graphics/SVG/1.1/DTD/svg11.dtd">
<svg xmlns:xlink="http://www.w3.org/1999/xlink" width="504pt" height="252pt" viewBox="0 0 504 252" xmlns="http://www.w3.org/2000/svg" version="1.1">
 <metadata>
  <rdf:RDF xmlns:dc="http://purl.org/dc/elements/1.1/" xmlns:cc="http://creativecommons.org/ns#" xmlns:rdf="http://www.w3.org/1999/02/22-rdf-syntax-ns#">
   <cc:Work>
    <dc:type rdf:resource="http://purl.org/dc/dcmitype/StillImage"/>
    <dc:date>2024-04-26T12:25:23.037391</dc:date>
    <dc:format>image/svg+xml</dc:format>
    <dc:creator>
     <cc:Agent>
      <dc:title>Matplotlib v3.8.4, https://matplotlib.org/</dc:title>
     </cc:Agent>
    </dc:creator>
   </cc:Work>
  </rdf:RDF>
 </metadata>
 <defs>
  <style type="text/css">*{stroke-linejoin: round; stroke-linecap: butt}</style>
 </defs>
 <g id="figure_1">
  <g id="patch_1">
   <path d="M 0 252 
L 504 252 
L 504 0 
L 0 0 
L 0 252 
z
" style="fill: none"/>
  </g>
  <g id="axes_1">
   <g id="patch_2">
    <path d="M 223.162654 125.37875 
C 223.162654 111.314765 219.714005 97.462992 213.119782 85.040758 
C 206.525559 72.618524 196.984764 62.000708 185.335863 54.120429 
C 173.686963 46.24015 160.2815 41.33522 146.297577 39.836696 
C 132.313654 38.338171 118.17328 40.291275 105.119145 45.524364 
L 137.130846 125.37875 
z
" style="fill: #1f77b4"/>
   </g>
   <g id="patch_3">
    <path d="M 105.119145 45.524364 
C 84.579721 53.758125 67.98861 69.60702 58.824087 89.748377 
C 49.659564 109.889733 48.610186 132.810276 55.895952 153.704781 
C 63.181718 174.599286 78.255227 191.897892 97.956365 201.973998 
C 117.657502 212.050104 140.506066 214.146664 161.711925 207.824141 
L 137.130846 125.37875 
z
" style="fill: #ff7f0e"/>
   </g>
   <g id="patch_4">
    <path d="M 161.711925 207.824141 
C 179.463567 202.531492 195.039859 191.644511 206.109925 176.792354 
C 217.17999 161.940197 223.162654 143.902597 223.162654 125.37875 
L 137.130846 125.37875 
z
" style="fill: #2ca02c"/>
   </g>
   <g id="matplotlib.axis_1"/>
   <g id="matplotlib.axis_2"/>
   <g id="text_1">
    <!-- app (32) -->
    <g transform="translate(190.156365 50.014128) scale(0.1 -0.1)">
     <defs>
      <path id="Lato-Regular-61" d="M 2208 1459 
Q 1814 1446 1537 1396 
Q 1261 1347 1086 1267 
Q 912 1187 833 1078 
Q 755 970 755 835 
Q 755 707 796 614 
Q 838 522 910 462 
Q 982 403 1080 376 
Q 1178 349 1290 349 
Q 1440 349 1565 379 
Q 1690 410 1800 467 
Q 1910 525 2011 605 
Q 2112 685 2208 787 
L 2208 1459 
z
M 368 2784 
Q 637 3043 947 3171 
Q 1258 3299 1635 3299 
Q 1907 3299 2118 3209 
Q 2330 3120 2474 2960 
Q 2618 2800 2691 2573 
Q 2765 2346 2765 2074 
L 2765 0 
L 2512 0 
Q 2429 0 2384 27 
Q 2339 54 2314 134 
L 2250 442 
Q 2122 323 2000 232 
Q 1878 141 1744 78 
Q 1610 16 1458 -17 
Q 1306 -51 1120 -51 
Q 931 -51 764 1 
Q 598 54 475 160 
Q 352 266 280 427 
Q 208 589 208 810 
Q 208 1002 313 1179 
Q 419 1357 656 1494 
Q 893 1632 1273 1720 
Q 1654 1808 2208 1821 
L 2208 2074 
Q 2208 2451 2045 2644 
Q 1882 2838 1568 2838 
Q 1357 2838 1214 2785 
Q 1072 2733 968 2667 
Q 864 2602 789 2549 
Q 714 2496 640 2496 
Q 582 2496 540 2526 
Q 499 2557 470 2602 
L 368 2784 
z
" transform="scale(0.015625)"/>
      <path id="Lato-Regular-70" d="M 1024 781 
Q 1181 570 1366 483 
Q 1552 397 1782 397 
Q 2237 397 2480 720 
Q 2723 1043 2723 1642 
Q 2723 1958 2667 2185 
Q 2611 2413 2505 2558 
Q 2400 2704 2246 2771 
Q 2093 2838 1898 2838 
Q 1619 2838 1409 2710 
Q 1200 2582 1024 2349 
L 1024 781 
z
M 995 2739 
Q 1200 2992 1469 3145 
Q 1738 3299 2083 3299 
Q 2365 3299 2592 3192 
Q 2819 3085 2979 2875 
Q 3139 2666 3225 2355 
Q 3312 2045 3312 1642 
Q 3312 1283 3216 974 
Q 3120 666 2939 440 
Q 2758 214 2497 84 
Q 2237 -45 1910 -45 
Q 1613 -45 1400 56 
Q 1187 157 1024 336 
L 1024 -1098 
L 451 -1098 
L 451 3242 
L 794 3242 
Q 915 3242 944 3123 
L 995 2739 
z
" transform="scale(0.015625)"/>
      <path id="Lato-Regular-20" transform="scale(0.015625)"/>
      <path id="Lato-Regular-28" d="M 784 2013 
Q 784 1328 958 681 
Q 1133 35 1469 -547 
Q 1520 -646 1494 -699 
Q 1469 -752 1421 -784 
L 1168 -938 
Q 928 -570 760 -208 
Q 592 154 488 518 
Q 384 883 336 1252 
Q 288 1622 288 2013 
Q 288 2400 336 2771 
Q 384 3142 488 3505 
Q 592 3869 760 4230 
Q 928 4592 1168 4963 
L 1421 4806 
Q 1469 4774 1494 4721 
Q 1520 4669 1469 4573 
Q 1133 3990 958 3344 
Q 784 2698 784 2013 
z
" transform="scale(0.015625)"/>
      <path id="Lato-Regular-33" d="M 416 3344 
Q 461 3658 589 3899 
Q 717 4141 913 4304 
Q 1110 4467 1364 4552 
Q 1619 4637 1914 4637 
Q 2205 4637 2451 4553 
Q 2698 4470 2875 4316 
Q 3053 4163 3152 3945 
Q 3251 3728 3251 3462 
Q 3251 3245 3195 3073 
Q 3139 2902 3035 2774 
Q 2931 2646 2784 2556 
Q 2637 2467 2454 2410 
Q 2902 2294 3128 2014 
Q 3354 1734 3354 1315 
Q 3354 998 3234 745 
Q 3114 493 2906 315 
Q 2698 138 2421 43 
Q 2144 -51 1827 -51 
Q 1462 -51 1203 40 
Q 944 131 765 291 
Q 586 451 470 670 
Q 355 890 275 1146 
L 522 1248 
Q 618 1290 709 1270 
Q 800 1251 842 1165 
Q 883 1075 945 950 
Q 1008 826 1117 710 
Q 1226 595 1394 515 
Q 1562 435 1821 435 
Q 2061 435 2241 513 
Q 2422 592 2542 717 
Q 2662 842 2723 995 
Q 2784 1149 2784 1299 
Q 2784 1485 2736 1638 
Q 2688 1792 2557 1904 
Q 2426 2016 2197 2080 
Q 1968 2144 1610 2144 
L 1610 2557 
Q 1904 2560 2110 2621 
Q 2317 2682 2446 2787 
Q 2576 2893 2635 3040 
Q 2694 3187 2694 3366 
Q 2694 3565 2632 3712 
Q 2570 3859 2461 3955 
Q 2352 4051 2203 4099 
Q 2054 4147 1882 4147 
Q 1709 4147 1560 4096 
Q 1411 4045 1297 3953 
Q 1184 3862 1107 3737 
Q 1030 3613 998 3462 
Q 957 3350 894 3313 
Q 832 3277 714 3293 
L 416 3344 
z
" transform="scale(0.015625)"/>
      <path id="Lato-Regular-32" d="M 3158 541 
Q 3251 541 3305 486 
Q 3360 432 3360 346 
L 3360 0 
L 301 0 
L 301 195 
Q 301 256 326 320 
Q 352 384 406 438 
L 1875 1914 
Q 2058 2099 2208 2270 
Q 2358 2442 2464 2614 
Q 2570 2787 2627 2964 
Q 2685 3142 2685 3344 
Q 2685 3546 2621 3698 
Q 2557 3850 2446 3949 
Q 2336 4048 2185 4097 
Q 2035 4147 1862 4147 
Q 1686 4147 1539 4096 
Q 1392 4045 1278 3953 
Q 1165 3862 1088 3737 
Q 1011 3613 979 3462 
Q 941 3350 875 3313 
Q 810 3277 691 3293 
L 394 3344 
Q 438 3658 568 3899 
Q 698 4141 894 4304 
Q 1091 4467 1344 4552 
Q 1597 4637 1891 4637 
Q 2182 4637 2435 4550 
Q 2688 4464 2873 4299 
Q 3059 4134 3164 3897 
Q 3270 3661 3270 3360 
Q 3270 3104 3193 2885 
Q 3117 2666 2985 2467 
Q 2854 2269 2683 2080 
Q 2512 1891 2320 1699 
L 1110 464 
Q 1238 499 1369 520 
Q 1501 541 1622 541 
L 3158 541 
z
" transform="scale(0.015625)"/>
      <path id="Lato-Regular-29" d="M 925 2013 
Q 925 2698 750 3344 
Q 576 3990 240 4573 
Q 214 4621 208 4657 
Q 202 4694 211 4721 
Q 221 4749 241 4769 
Q 262 4790 288 4806 
L 541 4963 
Q 781 4592 949 4230 
Q 1117 3869 1221 3505 
Q 1325 3142 1373 2771 
Q 1421 2400 1421 2013 
Q 1421 1622 1373 1252 
Q 1325 883 1221 518 
Q 1117 154 949 -208 
Q 781 -570 541 -938 
L 288 -784 
Q 262 -768 241 -747 
Q 221 -726 211 -699 
Q 202 -672 208 -633 
Q 214 -595 240 -547 
Q 576 35 750 681 
Q 925 1328 925 2013 
z
" transform="scale(0.015625)"/>
     </defs>
     <use xlink:href="#Lato-Regular-61"/>
     <use xlink:href="#Lato-Regular-70" x="49.700012"/>
     <use xlink:href="#Lato-Regular-70" x="105.750015"/>
     <use xlink:href="#Lato-Regular-20" x="161.800018"/>
     <use xlink:href="#Lato-Regular-28" x="187.400024"/>
     <use xlink:href="#Lato-Regular-33" x="214.100021"/>
     <use xlink:href="#Lato-Regular-32" x="272.100021"/>
     <use xlink:href="#Lato-Regular-29" x="330.100021"/>
    </g>
   </g>
   <g id="text_2">
    <!-- micro (50) -->
    <g transform="translate(3.561525 159.431915) scale(0.1 -0.1)">
     <defs>
      <path id="Lato-Regular-6d" d="M 451 0 
L 451 3242 
L 794 3242 
Q 915 3242 944 3123 
L 986 2790 
Q 1165 3011 1389 3152 
Q 1613 3293 1907 3293 
Q 2234 3293 2437 3110 
Q 2640 2928 2730 2618 
Q 2800 2794 2910 2922 
Q 3021 3050 3158 3133 
Q 3296 3216 3451 3254 
Q 3606 3293 3766 3293 
Q 4022 3293 4222 3211 
Q 4422 3130 4561 2973 
Q 4701 2816 4774 2587 
Q 4848 2358 4848 2064 
L 4848 0 
L 4275 0 
L 4275 2064 
Q 4275 2445 4108 2641 
Q 3942 2838 3629 2838 
Q 3488 2838 3361 2788 
Q 3235 2739 3139 2643 
Q 3043 2547 2987 2401 
Q 2931 2256 2931 2064 
L 2931 0 
L 2358 0 
L 2358 2064 
Q 2358 2454 2201 2646 
Q 2045 2838 1744 2838 
Q 1533 2838 1353 2724 
Q 1174 2611 1024 2416 
L 1024 0 
L 451 0 
z
" transform="scale(0.015625)"/>
      <path id="Lato-Regular-69" d="M 1053 3242 
L 1053 0 
L 483 0 
L 483 3242 
L 1053 3242 
z
M 1174 4259 
Q 1174 4176 1140 4104 
Q 1107 4032 1051 3976 
Q 995 3920 920 3888 
Q 845 3856 762 3856 
Q 678 3856 606 3888 
Q 534 3920 480 3976 
Q 426 4032 394 4104 
Q 362 4176 362 4259 
Q 362 4342 394 4417 
Q 426 4493 480 4549 
Q 534 4605 606 4637 
Q 678 4669 762 4669 
Q 845 4669 920 4637 
Q 995 4605 1051 4549 
Q 1107 4493 1140 4417 
Q 1174 4342 1174 4259 
z
" transform="scale(0.015625)"/>
      <path id="Lato-Regular-63" d="M 2707 2666 
Q 2682 2630 2656 2611 
Q 2630 2592 2586 2592 
Q 2538 2592 2480 2632 
Q 2422 2672 2337 2720 
Q 2253 2768 2129 2808 
Q 2006 2848 1827 2848 
Q 1587 2848 1404 2763 
Q 1222 2678 1099 2518 
Q 976 2358 913 2131 
Q 851 1904 851 1622 
Q 851 1328 918 1099 
Q 986 870 1109 715 
Q 1232 560 1406 478 
Q 1581 397 1798 397 
Q 2006 397 2140 446 
Q 2275 496 2363 557 
Q 2451 618 2510 667 
Q 2570 717 2627 717 
Q 2698 717 2736 662 
L 2896 454 
Q 2790 323 2656 230 
Q 2522 138 2366 75 
Q 2211 13 2041 -16 
Q 1872 -45 1696 -45 
Q 1392 -45 1131 67 
Q 870 179 678 392 
Q 486 605 377 915 
Q 269 1226 269 1622 
Q 269 1984 369 2291 
Q 470 2598 664 2820 
Q 858 3043 1141 3168 
Q 1424 3293 1792 3293 
Q 2134 3293 2395 3182 
Q 2656 3072 2858 2870 
L 2707 2666 
z
" transform="scale(0.015625)"/>
      <path id="Lato-Regular-72" d="M 992 2592 
Q 1146 2925 1370 3112 
Q 1594 3299 1917 3299 
Q 2019 3299 2113 3276 
Q 2208 3254 2282 3206 
L 2240 2781 
Q 2221 2701 2144 2701 
Q 2099 2701 2012 2720 
Q 1926 2739 1818 2739 
Q 1664 2739 1544 2694 
Q 1424 2650 1329 2562 
Q 1235 2474 1160 2344 
Q 1085 2214 1024 2048 
L 1024 0 
L 451 0 
L 451 3242 
L 778 3242 
Q 870 3242 905 3206 
Q 941 3171 954 3085 
L 992 2592 
z
" transform="scale(0.015625)"/>
      <path id="Lato-Regular-6f" d="M 1818 3293 
Q 2173 3293 2457 3174 
Q 2742 3056 2944 2838 
Q 3146 2621 3253 2312 
Q 3360 2003 3360 1622 
Q 3360 1238 3253 931 
Q 3146 624 2944 406 
Q 2742 189 2457 72 
Q 2173 -45 1818 -45 
Q 1459 -45 1172 72 
Q 886 189 684 406 
Q 483 624 376 931 
Q 269 1238 269 1622 
Q 269 2003 376 2312 
Q 483 2621 684 2838 
Q 886 3056 1172 3174 
Q 1459 3293 1818 3293 
z
M 1818 400 
Q 2298 400 2534 721 
Q 2771 1043 2771 1619 
Q 2771 2198 2534 2521 
Q 2298 2845 1818 2845 
Q 1574 2845 1393 2761 
Q 1213 2678 1093 2521 
Q 973 2365 913 2136 
Q 854 1907 854 1619 
Q 854 1043 1092 721 
Q 1331 400 1818 400 
z
" transform="scale(0.015625)"/>
      <path id="Lato-Regular-35" d="M 1158 2854 
Q 1517 2931 1818 2931 
Q 2176 2931 2451 2825 
Q 2726 2720 2910 2534 
Q 3094 2349 3188 2096 
Q 3283 1843 3283 1546 
Q 3283 1181 3156 886 
Q 3030 592 2808 382 
Q 2586 173 2285 61 
Q 1984 -51 1635 -51 
Q 1434 -51 1248 -11 
Q 1062 29 900 96 
Q 739 163 601 249 
Q 464 336 358 432 
L 534 675 
Q 592 758 685 758 
Q 749 758 829 708 
Q 909 659 1024 598 
Q 1139 538 1294 488 
Q 1450 438 1664 438 
Q 1904 438 2096 515 
Q 2288 592 2425 734 
Q 2563 877 2636 1075 
Q 2710 1274 2710 1520 
Q 2710 1734 2648 1907 
Q 2586 2080 2459 2201 
Q 2333 2323 2144 2390 
Q 1955 2458 1702 2458 
Q 1530 2458 1342 2429 
Q 1155 2400 960 2336 
L 602 2442 
L 970 4586 
L 3142 4586 
L 3142 4336 
Q 3142 4214 3067 4136 
Q 2992 4058 2810 4058 
L 1370 4058 
L 1158 2854 
z
" transform="scale(0.015625)"/>
      <path id="Lato-Regular-30" d="M 3520 2291 
Q 3520 1690 3390 1250 
Q 3261 810 3037 522 
Q 2813 234 2507 93 
Q 2202 -48 1853 -48 
Q 1501 -48 1198 93 
Q 896 234 672 522 
Q 448 810 320 1250 
Q 192 1690 192 2291 
Q 192 2893 320 3334 
Q 448 3776 672 4065 
Q 896 4355 1198 4496 
Q 1501 4637 1853 4637 
Q 2202 4637 2507 4496 
Q 2813 4355 3037 4065 
Q 3261 3776 3390 3334 
Q 3520 2893 3520 2291 
z
M 2928 2291 
Q 2928 2816 2840 3173 
Q 2752 3530 2603 3747 
Q 2454 3965 2259 4059 
Q 2064 4154 1853 4154 
Q 1642 4154 1446 4059 
Q 1251 3965 1104 3747 
Q 957 3530 869 3173 
Q 781 2816 781 2291 
Q 781 1766 869 1411 
Q 957 1056 1104 838 
Q 1251 621 1446 526 
Q 1642 432 1853 432 
Q 2064 432 2259 526 
Q 2454 621 2603 838 
Q 2752 1056 2840 1411 
Q 2928 1766 2928 2291 
z
" transform="scale(0.015625)"/>
     </defs>
     <use xlink:href="#Lato-Regular-6d"/>
     <use xlink:href="#Lato-Regular-69" x="82.250015"/>
     <use xlink:href="#Lato-Regular-63" x="106.250015"/>
     <use xlink:href="#Lato-Regular-72" x="154.000015"/>
     <use xlink:href="#Lato-Regular-6f" x="190.400024"/>
     <use xlink:href="#Lato-Regular-20" x="247.100037"/>
     <use xlink:href="#Lato-Regular-28" x="272.700043"/>
     <use xlink:href="#Lato-Regular-35" x="299.40004"/>
     <use xlink:href="#Lato-Regular-30" x="357.40004"/>
     <use xlink:href="#Lato-Regular-29" x="415.40004"/>
    </g>
   </g>
   <g id="text_3">
    <!-- toy (21) -->
    <g transform="translate(213.007833 184.953246) scale(0.1 -0.1)">
     <defs>
      <path id="Lato-Regular-74" d="M 1446 -51 
Q 1062 -51 856 163 
Q 650 378 650 781 
L 650 2765 
L 259 2765 
Q 208 2765 173 2795 
Q 138 2826 138 2890 
L 138 3117 
L 669 3184 
L 800 4186 
Q 810 4234 843 4264 
Q 877 4294 931 4294 
L 1219 4294 
L 1219 3178 
L 2157 3178 
L 2157 2765 
L 1219 2765 
L 1219 819 
Q 1219 614 1318 515 
Q 1418 416 1574 416 
Q 1664 416 1729 440 
Q 1795 464 1843 493 
Q 1891 522 1924 546 
Q 1958 570 1984 570 
Q 2029 570 2064 515 
L 2230 243 
Q 2083 106 1875 27 
Q 1667 -51 1446 -51 
z
" transform="scale(0.015625)"/>
      <path id="Lato-Regular-79" d="M 3248 3242 
L 1440 -957 
Q 1411 -1021 1368 -1059 
Q 1325 -1098 1235 -1098 
L 813 -1098 
L 1405 189 
L 67 3242 
L 560 3242 
Q 634 3242 677 3205 
Q 720 3168 736 3123 
L 1603 1082 
Q 1654 947 1690 800 
Q 1734 950 1786 1085 
L 2627 3123 
Q 2646 3174 2692 3208 
Q 2739 3242 2797 3242 
L 3248 3242 
z
" transform="scale(0.015625)"/>
      <path id="Lato-Regular-31" d="M 3258 435 
L 3258 0 
L 800 0 
L 800 435 
L 1782 435 
L 1782 3562 
Q 1782 3702 1792 3846 
L 976 3146 
Q 934 3110 892 3102 
Q 851 3094 816 3100 
Q 781 3107 750 3126 
Q 720 3146 704 3168 
L 525 3414 
L 1891 4595 
L 2355 4595 
L 2355 435 
L 3258 435 
z
" transform="scale(0.015625)"/>
     </defs>
     <use xlink:href="#Lato-Regular-74"/>
     <use xlink:href="#Lato-Regular-6f" x="35.850006"/>
     <use xlink:href="#Lato-Regular-79" x="92.550018"/>
     <use xlink:href="#Lato-Regular-20" x="144.100021"/>
     <use xlink:href="#Lato-Regular-28" x="169.700027"/>
     <use xlink:href="#Lato-Regular-32" x="196.400024"/>
     <use xlink:href="#Lato-Regular-31" x="254.400024"/>
     <use xlink:href="#Lato-Regular-29" x="312.400024"/>
    </g>
   </g>
   <g id="text_4">
    <!-- Number of benchmarks by category -->
    <g transform="translate(42.657096 11.83899) scale(0.12 -0.12)">
     <defs>
      <path id="Lato-Regular-4e" d="M 4301 4586 
L 4301 0 
L 3990 0 
Q 3917 0 3867 25 
Q 3818 51 3770 112 
L 1117 3568 
Q 1123 3488 1126 3411 
Q 1130 3334 1130 3267 
L 1130 0 
L 586 0 
L 586 4586 
L 906 4586 
Q 947 4586 976 4581 
Q 1005 4576 1027 4565 
Q 1050 4554 1072 4533 
Q 1094 4512 1120 4480 
L 3773 1027 
Q 3766 1110 3761 1188 
Q 3757 1267 3757 1338 
L 3757 4586 
L 4301 4586 
z
" transform="scale(0.015625)"/>
      <path id="Lato-Regular-75" d="M 3117 3242 
L 3117 0 
L 2778 0 
Q 2656 0 2624 118 
L 2579 467 
Q 2368 234 2105 91 
Q 1843 -51 1504 -51 
Q 1238 -51 1035 37 
Q 832 125 694 285 
Q 557 445 488 672 
Q 419 899 419 1174 
L 419 3242 
L 989 3242 
L 989 1174 
Q 989 806 1157 604 
Q 1325 403 1670 403 
Q 1923 403 2142 523 
Q 2362 643 2547 854 
L 2547 3242 
L 3117 3242 
z
" transform="scale(0.015625)"/>
      <path id="Lato-Regular-62" d="M 1024 781 
Q 1181 570 1368 483 
Q 1555 397 1779 397 
Q 2237 397 2480 720 
Q 2723 1043 2723 1683 
Q 2723 2278 2507 2558 
Q 2291 2838 1891 2838 
Q 1613 2838 1406 2710 
Q 1200 2582 1024 2349 
L 1024 781 
z
M 1024 2774 
Q 1229 3011 1486 3152 
Q 1744 3293 2080 3293 
Q 2365 3293 2593 3184 
Q 2822 3075 2982 2868 
Q 3142 2662 3227 2368 
Q 3312 2074 3312 1706 
Q 3312 1312 3216 989 
Q 3120 666 2939 437 
Q 2758 208 2499 81 
Q 2240 -45 1917 -45 
Q 1597 -45 1377 75 
Q 1158 195 995 416 
L 966 122 
Q 941 0 819 0 
L 451 0 
L 451 4714 
L 1024 4714 
L 1024 2774 
z
" transform="scale(0.015625)"/>
      <path id="Lato-Regular-65" d="M 2621 1974 
Q 2621 2173 2565 2337 
Q 2509 2502 2401 2622 
Q 2294 2742 2140 2808 
Q 1987 2874 1792 2874 
Q 1382 2874 1144 2635 
Q 906 2397 848 1974 
L 2621 1974 
z
M 3082 454 
Q 2976 326 2829 232 
Q 2682 138 2514 77 
Q 2346 16 2166 -14 
Q 1987 -45 1811 -45 
Q 1475 -45 1192 68 
Q 909 182 702 401 
Q 496 621 381 944 
Q 266 1267 266 1686 
Q 266 2026 370 2320 
Q 474 2614 669 2830 
Q 864 3046 1145 3169 
Q 1427 3293 1779 3293 
Q 2070 3293 2318 3195 
Q 2566 3098 2747 2914 
Q 2928 2730 3030 2459 
Q 3133 2189 3133 1843 
Q 3133 1709 3104 1664 
Q 3075 1619 2995 1619 
L 829 1619 
Q 838 1312 913 1085 
Q 989 858 1123 706 
Q 1258 554 1443 478 
Q 1629 403 1859 403 
Q 2074 403 2229 452 
Q 2384 502 2496 560 
Q 2608 618 2683 667 
Q 2758 717 2813 717 
Q 2883 717 2922 662 
L 3082 454 
z
" transform="scale(0.015625)"/>
      <path id="Lato-Regular-66" d="M 662 0 
L 662 2755 
L 304 2797 
Q 237 2813 193 2846 
Q 150 2880 150 2944 
L 150 3178 
L 662 3178 
L 662 3491 
Q 662 3770 740 3986 
Q 819 4202 964 4350 
Q 1110 4499 1315 4576 
Q 1520 4653 1776 4653 
Q 1994 4653 2176 4589 
L 2163 4304 
Q 2157 4227 2078 4220 
Q 2000 4214 1869 4214 
Q 1722 4214 1602 4176 
Q 1482 4138 1395 4051 
Q 1309 3965 1262 3824 
Q 1216 3683 1216 3475 
L 1216 3178 
L 2150 3178 
L 2150 2765 
L 1235 2765 
L 1235 0 
L 662 0 
z
" transform="scale(0.015625)"/>
      <path id="Lato-Regular-6e" d="M 989 2771 
Q 1094 2890 1212 2986 
Q 1331 3082 1464 3150 
Q 1597 3219 1745 3256 
Q 1894 3293 2067 3293 
Q 2333 3293 2536 3205 
Q 2739 3117 2875 2955 
Q 3011 2794 3081 2566 
Q 3152 2339 3152 2064 
L 3152 0 
L 2579 0 
L 2579 2064 
Q 2579 2432 2411 2635 
Q 2243 2838 1901 2838 
Q 1648 2838 1429 2716 
Q 1210 2595 1024 2387 
L 1024 0 
L 451 0 
L 451 3242 
L 794 3242 
Q 915 3242 944 3123 
L 989 2771 
z
" transform="scale(0.015625)"/>
      <path id="Lato-Regular-68" d="M 1024 2810 
Q 1232 3030 1485 3161 
Q 1738 3293 2067 3293 
Q 2333 3293 2536 3205 
Q 2739 3117 2875 2955 
Q 3011 2794 3081 2566 
Q 3152 2339 3152 2064 
L 3152 0 
L 2579 0 
L 2579 2064 
Q 2579 2432 2411 2635 
Q 2243 2838 1901 2838 
Q 1648 2838 1429 2716 
Q 1210 2595 1024 2387 
L 1024 0 
L 451 0 
L 451 4714 
L 1024 4714 
L 1024 2810 
z
" transform="scale(0.015625)"/>
      <path id="Lato-Regular-6b" d="M 1024 4714 
L 1024 1939 
L 1171 1939 
Q 1235 1939 1278 1956 
Q 1322 1974 1370 2029 
L 2394 3126 
Q 2438 3181 2488 3211 
Q 2538 3242 2621 3242 
L 3136 3242 
L 1942 1971 
Q 1856 1862 1757 1802 
Q 1814 1763 1860 1713 
Q 1907 1664 1949 1600 
L 3216 0 
L 2707 0 
Q 2634 0 2581 24 
Q 2528 48 2490 112 
L 1424 1440 
Q 1376 1507 1329 1528 
Q 1283 1549 1187 1549 
L 1024 1549 
L 1024 0 
L 451 0 
L 451 4714 
L 1024 4714 
z
" transform="scale(0.015625)"/>
      <path id="Lato-Regular-73" d="M 2339 2707 
Q 2301 2637 2221 2637 
Q 2173 2637 2112 2672 
Q 2051 2707 1963 2750 
Q 1875 2794 1753 2830 
Q 1632 2867 1466 2867 
Q 1322 2867 1206 2830 
Q 1091 2794 1009 2730 
Q 928 2666 885 2581 
Q 842 2496 842 2397 
Q 842 2272 914 2189 
Q 986 2106 1104 2045 
Q 1222 1984 1372 1937 
Q 1523 1891 1681 1838 
Q 1840 1786 1990 1722 
Q 2141 1658 2259 1562 
Q 2378 1466 2450 1326 
Q 2522 1187 2522 992 
Q 2522 768 2442 577 
Q 2362 387 2205 248 
Q 2048 109 1821 29 
Q 1594 -51 1296 -51 
Q 957 -51 681 59 
Q 406 170 214 342 
L 349 560 
Q 374 602 409 624 
Q 445 646 499 646 
Q 557 646 621 601 
Q 685 557 776 502 
Q 867 448 998 403 
Q 1130 358 1325 358 
Q 1491 358 1616 401 
Q 1741 445 1824 518 
Q 1907 592 1947 688 
Q 1987 784 1987 893 
Q 1987 1027 1915 1115 
Q 1843 1203 1724 1265 
Q 1606 1328 1454 1374 
Q 1302 1421 1144 1472 
Q 986 1523 834 1588 
Q 682 1654 563 1753 
Q 445 1853 373 1998 
Q 301 2144 301 2352 
Q 301 2538 377 2709 
Q 454 2880 601 3009 
Q 749 3139 963 3216 
Q 1178 3293 1453 3293 
Q 1773 3293 2027 3192 
Q 2282 3091 2467 2915 
L 2339 2707 
z
" transform="scale(0.015625)"/>
      <path id="Lato-Regular-67" d="M 1581 1584 
Q 1754 1584 1885 1632 
Q 2016 1680 2105 1766 
Q 2195 1853 2240 1973 
Q 2285 2093 2285 2237 
Q 2285 2534 2104 2710 
Q 1923 2886 1581 2886 
Q 1235 2886 1054 2710 
Q 874 2534 874 2237 
Q 874 2093 920 1973 
Q 966 1853 1056 1766 
Q 1146 1680 1277 1632 
Q 1408 1584 1581 1584 
z
M 2608 -176 
Q 2608 -58 2541 16 
Q 2474 90 2360 131 
Q 2246 173 2096 190 
Q 1946 208 1778 217 
Q 1610 227 1437 236 
Q 1264 246 1104 269 
Q 925 186 811 59 
Q 698 -67 698 -237 
Q 698 -346 754 -440 
Q 810 -534 925 -603 
Q 1040 -672 1214 -712 
Q 1389 -752 1626 -752 
Q 1856 -752 2038 -710 
Q 2221 -669 2347 -592 
Q 2474 -515 2541 -409 
Q 2608 -304 2608 -176 
z
M 3187 3114 
L 3187 2902 
Q 3187 2797 3053 2768 
L 2685 2720 
Q 2794 2509 2794 2253 
Q 2794 2016 2702 1822 
Q 2611 1629 2451 1491 
Q 2291 1354 2067 1280 
Q 1843 1206 1581 1206 
Q 1354 1206 1152 1261 
Q 1050 1197 995 1125 
Q 941 1053 941 979 
Q 941 864 1035 805 
Q 1130 746 1283 720 
Q 1437 694 1633 688 
Q 1830 682 2036 667 
Q 2243 653 2440 617 
Q 2637 582 2790 502 
Q 2944 422 3038 281 
Q 3133 141 3133 -83 
Q 3133 -291 3029 -486 
Q 2925 -682 2729 -834 
Q 2534 -986 2251 -1077 
Q 1968 -1168 1613 -1168 
Q 1258 -1168 992 -1097 
Q 726 -1027 550 -908 
Q 374 -790 286 -635 
Q 198 -480 198 -310 
Q 198 -70 348 96 
Q 499 262 762 362 
Q 618 426 533 533 
Q 448 640 448 822 
Q 448 893 473 968 
Q 499 1043 552 1118 
Q 605 1194 681 1261 
Q 758 1328 861 1379 
Q 621 1514 486 1736 
Q 352 1958 352 2253 
Q 352 2490 443 2683 
Q 534 2877 697 3013 
Q 861 3149 1086 3222 
Q 1312 3296 1581 3296 
Q 1792 3296 1974 3249 
Q 2157 3203 2307 3114 
L 3187 3114 
z
" transform="scale(0.015625)"/>
     </defs>
     <use xlink:href="#Lato-Regular-4e"/>
     <use xlink:href="#Lato-Regular-75" x="76.350006"/>
     <use xlink:href="#Lato-Regular-6d" x="132.100006"/>
     <use xlink:href="#Lato-Regular-62" x="214.350021"/>
     <use xlink:href="#Lato-Regular-65" x="270.350021"/>
     <use xlink:href="#Lato-Regular-72" x="323.150024"/>
     <use xlink:href="#Lato-Regular-20" x="359.550034"/>
     <use xlink:href="#Lato-Regular-6f" x="385.15004"/>
     <use xlink:href="#Lato-Regular-66" x="441.850052"/>
     <use xlink:href="#Lato-Regular-20" x="476.900055"/>
     <use xlink:href="#Lato-Regular-62" x="502.500061"/>
     <use xlink:href="#Lato-Regular-65" x="558.500061"/>
     <use xlink:href="#Lato-Regular-6e" x="611.300064"/>
     <use xlink:href="#Lato-Regular-63" x="667.100067"/>
     <use xlink:href="#Lato-Regular-68" x="714.850067"/>
     <use xlink:href="#Lato-Regular-6d" x="770.65007"/>
     <use xlink:href="#Lato-Regular-61" x="852.900085"/>
     <use xlink:href="#Lato-Regular-72" x="902.600098"/>
     <use xlink:href="#Lato-Regular-6b" x="939.000107"/>
     <use xlink:href="#Lato-Regular-73" x="989.80011"/>
     <use xlink:href="#Lato-Regular-20" x="1033.100113"/>
     <use xlink:href="#Lato-Regular-62" x="1058.700119"/>
     <use xlink:href="#Lato-Regular-79" x="1114.700119"/>
     <use xlink:href="#Lato-Regular-20" x="1166.250122"/>
     <use xlink:href="#Lato-Regular-63" x="1191.850128"/>
     <use xlink:href="#Lato-Regular-61" x="1239.600128"/>
     <use xlink:href="#Lato-Regular-74" x="1289.30014"/>
     <use xlink:href="#Lato-Regular-65" x="1325.150146"/>
     <use xlink:href="#Lato-Regular-67" x="1377.95015"/>
     <use xlink:href="#Lato-Regular-6f" x="1429.95015"/>
     <use xlink:href="#Lato-Regular-72" x="1486.650162"/>
     <use xlink:href="#Lato-Regular-79" x="1523.050171"/>
    </g>
   </g>
  </g>
  <g id="axes_2">
   <g id="patch_5">
    <path d="M 285.373835 232.91851 
L 500.99976 232.91851 
L 500.99976 17.83899 
L 285.373835 17.83899 
L 285.373835 232.91851 
z
" style="fill: none"/>
   </g>
   <g id="patch_6">
    <path d="M 295.175013 232.91851 
L 336.443133 232.91851 
L 336.443133 116.775569 
L 295.175013 116.775569 
z
" clip-path="url(#pe0746f956f)" style="fill: #1f77b4"/>
   </g>
   <g id="patch_7">
    <path d="M 346.760163 232.91851 
L 388.028282 232.91851 
L 388.028282 159.791473 
L 346.760163 159.791473 
z
" clip-path="url(#pe0746f956f)" style="fill: #ff7f0e"/>
   </g>
   <g id="patch_8">
    <path d="M 398.345312 232.91851 
L 439.613432 232.91851 
L 439.613432 103.870798 
L 398.345312 103.870798 
z
" clip-path="url(#pe0746f956f)" style="fill: #2ca02c"/>
   </g>
   <g id="patch_9">
    <path d="M 449.930462 232.91851 
L 491.198582 232.91851 
L 491.198582 108.172388 
L 449.930462 108.172388 
z
" clip-path="url(#pe0746f956f)" style="fill: #888888"/>
   </g>
   <g id="matplotlib.axis_3">
    <g id="xtick_1">
     <g id="line2d_1">
      <defs>
       <path id="m613440f3ca" d="M 0 0 
L 0 3.5 
" style="stroke: #000000; stroke-width: 0.8"/>
      </defs>
      <g>
       <use xlink:href="#m613440f3ca" x="315.809073" y="232.91851" style="stroke: #000000; stroke-width: 0.8"/>
      </g>
     </g>
     <g id="text_5">
      <!-- app -->
      <g transform="translate(307.719229 247.284135) scale(0.1 -0.1)">
       <use xlink:href="#Lato-Regular-61"/>
       <use xlink:href="#Lato-Regular-70" x="49.700012"/>
       <use xlink:href="#Lato-Regular-70" x="105.750015"/>
      </g>
     </g>
    </g>
    <g id="xtick_2">
     <g id="line2d_2">
      <g>
       <use xlink:href="#m613440f3ca" x="367.394223" y="232.91851" style="stroke: #000000; stroke-width: 0.8"/>
      </g>
     </g>
     <g id="text_6">
      <!-- micro -->
      <g transform="translate(355.038754 247.284135) scale(0.1 -0.1)">
       <use xlink:href="#Lato-Regular-6d"/>
       <use xlink:href="#Lato-Regular-69" x="82.250015"/>
       <use xlink:href="#Lato-Regular-63" x="106.250015"/>
       <use xlink:href="#Lato-Regular-72" x="154.000015"/>
       <use xlink:href="#Lato-Regular-6f" x="190.400024"/>
      </g>
     </g>
    </g>
    <g id="xtick_3">
     <g id="line2d_3">
      <g>
       <use xlink:href="#m613440f3ca" x="418.979372" y="232.91851" style="stroke: #000000; stroke-width: 0.8"/>
      </g>
     </g>
     <g id="text_7">
      <!-- toy -->
      <g transform="translate(411.774685 247.284135) scale(0.1 -0.1)">
       <use xlink:href="#Lato-Regular-74"/>
       <use xlink:href="#Lato-Regular-6f" x="35.850006"/>
       <use xlink:href="#Lato-Regular-79" x="92.550018"/>
      </g>
     </g>
    </g>
    <g id="xtick_4">
     <g id="line2d_4">
      <g>
       <use xlink:href="#m613440f3ca" x="470.564522" y="232.91851" style="stroke: #000000; stroke-width: 0.8"/>
      </g>
     </g>
     <g id="text_8">
      <!-- overall -->
      <g transform="translate(455.84499 247.284135) scale(0.1 -0.1)">
       <defs>
        <path id="Lato-Regular-76" d="M 3229 3242 
L 1907 0 
L 1395 0 
L 74 3242 
L 538 3242 
Q 608 3242 653 3206 
Q 698 3171 714 3123 
L 1536 1037 
Q 1574 918 1603 806 
Q 1632 694 1658 582 
Q 1683 694 1712 806 
Q 1741 918 1782 1037 
L 2614 3123 
Q 2634 3174 2678 3208 
Q 2723 3242 2784 3242 
L 3229 3242 
z
" transform="scale(0.015625)"/>
        <path id="Lato-Regular-6c" d="M 1040 4714 
L 1040 0 
L 470 0 
L 470 4714 
L 1040 4714 
z
" transform="scale(0.015625)"/>
       </defs>
       <use xlink:href="#Lato-Regular-6f"/>
       <use xlink:href="#Lato-Regular-76" x="56.700012"/>
       <use xlink:href="#Lato-Regular-65" x="108.300018"/>
       <use xlink:href="#Lato-Regular-72" x="161.100021"/>
       <use xlink:href="#Lato-Regular-61" x="197.500031"/>
       <use xlink:href="#Lato-Regular-6c" x="247.200043"/>
       <use xlink:href="#Lato-Regular-6c" x="270.800049"/>
      </g>
     </g>
    </g>
   </g>
   <g id="matplotlib.axis_4">
    <g id="ytick_1">
     <g id="line2d_5">
      <defs>
       <path id="m7435b7bd98" d="M 0 0 
L -3.5 0 
" style="stroke: #000000; stroke-width: 0.8"/>
      </defs>
      <g>
       <use xlink:href="#m7435b7bd98" x="285.373835" y="232.91851" style="stroke: #000000; stroke-width: 0.8"/>
      </g>
     </g>
     <g id="text_9">
      <!-- 0 -->
      <g transform="translate(272.573835 236.601323) scale(0.1 -0.1)">
       <use xlink:href="#Lato-Regular-30"/>
      </g>
     </g>
    </g>
    <g id="ytick_2">
     <g id="line2d_6">
      <g>
       <use xlink:href="#m7435b7bd98" x="285.373835" y="189.902606" style="stroke: #000000; stroke-width: 0.8"/>
      </g>
     </g>
     <g id="text_10">
      <!-- 10 -->
      <g transform="translate(266.773835 193.585419) scale(0.1 -0.1)">
       <use xlink:href="#Lato-Regular-31"/>
       <use xlink:href="#Lato-Regular-30" x="58"/>
      </g>
     </g>
    </g>
    <g id="ytick_3">
     <g id="line2d_7">
      <g>
       <use xlink:href="#m7435b7bd98" x="285.373835" y="146.886702" style="stroke: #000000; stroke-width: 0.8"/>
      </g>
     </g>
     <g id="text_11">
      <!-- 20 -->
      <g transform="translate(266.773835 150.569514) scale(0.1 -0.1)">
       <use xlink:href="#Lato-Regular-32"/>
       <use xlink:href="#Lato-Regular-30" x="58"/>
      </g>
     </g>
    </g>
    <g id="ytick_4">
     <g id="line2d_8">
      <g>
       <use xlink:href="#m7435b7bd98" x="285.373835" y="103.870798" style="stroke: #000000; stroke-width: 0.8"/>
      </g>
     </g>
     <g id="text_12">
      <!-- 30 -->
      <g transform="translate(266.773835 107.55361) scale(0.1 -0.1)">
       <use xlink:href="#Lato-Regular-33"/>
       <use xlink:href="#Lato-Regular-30" x="58"/>
      </g>
     </g>
    </g>
    <g id="ytick_5">
     <g id="line2d_9">
      <g>
       <use xlink:href="#m7435b7bd98" x="285.373835" y="60.854894" style="stroke: #000000; stroke-width: 0.8"/>
      </g>
     </g>
     <g id="text_13">
      <!-- 40 -->
      <g transform="translate(266.773835 64.537706) scale(0.1 -0.1)">
       <defs>
        <path id="Lato-Regular-34" d="M 2336 1654 
L 2336 3546 
Q 2336 3629 2342 3728 
Q 2349 3827 2362 3930 
L 691 1654 
L 2336 1654 
z
M 3530 1654 
L 3530 1328 
Q 3530 1277 3499 1241 
Q 3469 1206 3405 1206 
L 2835 1206 
L 2835 0 
L 2336 0 
L 2336 1206 
L 301 1206 
Q 237 1206 190 1243 
Q 144 1280 131 1334 
L 74 1626 
L 2304 4586 
L 2835 4586 
L 2835 1654 
L 3530 1654 
z
" transform="scale(0.015625)"/>
       </defs>
       <use xlink:href="#Lato-Regular-34"/>
       <use xlink:href="#Lato-Regular-30" x="58"/>
      </g>
     </g>
    </g>
    <g id="ytick_6">
     <g id="line2d_10">
      <g>
       <use xlink:href="#m7435b7bd98" x="285.373835" y="17.83899" style="stroke: #000000; stroke-width: 0.8"/>
      </g>
     </g>
     <g id="text_14">
      <!-- 50 -->
      <g transform="translate(266.773835 21.521803) scale(0.1 -0.1)">
       <use xlink:href="#Lato-Regular-35"/>
       <use xlink:href="#Lato-Regular-30" x="58"/>
      </g>
     </g>
    </g>
    <g id="text_15">
     <!-- % speedup -->
     <g transform="translate(261.05821 149.302969) rotate(-90) scale(0.1 -0.1)">
      <defs>
       <path id="Lato-Regular-25" d="M 2310 3478 
Q 2310 3210 2227 2997 
Q 2144 2784 2005 2638 
Q 1866 2493 1682 2416 
Q 1498 2339 1293 2339 
Q 1078 2339 892 2416 
Q 707 2493 571 2638 
Q 435 2784 358 2997 
Q 282 3210 282 3478 
Q 282 3754 358 3968 
Q 435 4182 571 4329 
Q 707 4477 892 4553 
Q 1078 4630 1293 4630 
Q 1510 4630 1696 4553 
Q 1882 4477 2019 4329 
Q 2157 4182 2233 3968 
Q 2310 3754 2310 3478 
z
M 1869 3478 
Q 1869 3690 1824 3837 
Q 1779 3984 1700 4078 
Q 1622 4173 1516 4214 
Q 1411 4256 1293 4256 
Q 1174 4256 1072 4214 
Q 970 4173 893 4078 
Q 816 3984 771 3837 
Q 726 3690 726 3478 
Q 726 3270 771 3124 
Q 816 2979 893 2888 
Q 970 2797 1072 2757 
Q 1174 2717 1293 2717 
Q 1411 2717 1516 2757 
Q 1622 2797 1700 2888 
Q 1779 2979 1824 3124 
Q 1869 3270 1869 3478 
z
M 3933 4490 
Q 3965 4528 4008 4557 
Q 4051 4586 4125 4586 
L 4538 4586 
L 1184 93 
Q 1155 51 1110 25 
Q 1066 0 1002 0 
L 582 0 
L 3933 4490 
z
M 4848 1082 
Q 4848 813 4765 601 
Q 4682 390 4542 244 
Q 4403 99 4219 22 
Q 4035 -54 3830 -54 
Q 3613 -54 3429 22 
Q 3245 99 3109 244 
Q 2973 390 2896 601 
Q 2819 813 2819 1082 
Q 2819 1357 2896 1573 
Q 2973 1789 3109 1936 
Q 3245 2083 3429 2160 
Q 3613 2237 3830 2237 
Q 4045 2237 4232 2160 
Q 4419 2083 4555 1936 
Q 4691 1789 4769 1573 
Q 4848 1357 4848 1082 
z
M 4406 1082 
Q 4406 1293 4361 1441 
Q 4317 1590 4238 1683 
Q 4160 1776 4054 1817 
Q 3949 1859 3830 1859 
Q 3712 1859 3608 1817 
Q 3504 1776 3427 1683 
Q 3350 1590 3307 1441 
Q 3264 1293 3264 1082 
Q 3264 874 3307 730 
Q 3350 586 3427 494 
Q 3504 403 3608 363 
Q 3712 323 3830 323 
Q 3949 323 4054 363 
Q 4160 403 4238 494 
Q 4317 586 4361 730 
Q 4406 874 4406 1082 
z
" transform="scale(0.015625)"/>
       <path id="Lato-Regular-64" d="M 2563 2470 
Q 2403 2685 2217 2769 
Q 2032 2854 1802 2854 
Q 1350 2854 1107 2531 
Q 864 2208 864 1610 
Q 864 1293 918 1067 
Q 973 842 1078 696 
Q 1184 550 1337 483 
Q 1491 416 1686 416 
Q 1968 416 2177 544 
Q 2387 672 2563 906 
L 2563 2470 
z
M 3133 4714 
L 3133 0 
L 2794 0 
Q 2672 0 2640 118 
L 2589 512 
Q 2381 262 2115 108 
Q 1850 -45 1501 -45 
Q 1222 -45 995 62 
Q 768 170 608 378 
Q 448 586 361 896 
Q 275 1206 275 1610 
Q 275 1968 371 2277 
Q 467 2586 646 2813 
Q 826 3040 1086 3169 
Q 1347 3299 1674 3299 
Q 1971 3299 2184 3198 
Q 2397 3098 2563 2918 
L 2563 4714 
L 3133 4714 
z
" transform="scale(0.015625)"/>
      </defs>
      <use xlink:href="#Lato-Regular-25"/>
      <use xlink:href="#Lato-Regular-20" x="80.150009"/>
      <use xlink:href="#Lato-Regular-73" x="105.750015"/>
      <use xlink:href="#Lato-Regular-70" x="149.050018"/>
      <use xlink:href="#Lato-Regular-65" x="205.100021"/>
      <use xlink:href="#Lato-Regular-65" x="257.900024"/>
      <use xlink:href="#Lato-Regular-64" x="310.700027"/>
      <use xlink:href="#Lato-Regular-75" x="366.700027"/>
      <use xlink:href="#Lato-Regular-70" x="422.450027"/>
     </g>
    </g>
   </g>
   <g id="patch_10">
    <path d="M 285.373835 232.91851 
L 285.373835 17.83899 
" style="fill: none; stroke: #000000; stroke-width: 0.8; stroke-linejoin: miter; stroke-linecap: square"/>
   </g>
   <g id="patch_11">
    <path d="M 500.99976 232.91851 
L 500.99976 17.83899 
" style="fill: none; stroke: #000000; stroke-width: 0.8; stroke-linejoin: miter; stroke-linecap: square"/>
   </g>
   <g id="patch_12">
    <path d="M 285.373835 232.91851 
L 500.99976 232.91851 
" style="fill: none; stroke: #000000; stroke-width: 0.8; stroke-linejoin: miter; stroke-linecap: square"/>
   </g>
   <g id="patch_13">
    <path d="M 285.373835 17.83899 
L 500.99976 17.83899 
" style="fill: none; stroke: #000000; stroke-width: 0.8; stroke-linejoin: miter; stroke-linecap: square"/>
   </g>
   <g id="text_16">
    <!-- 27 -->
    <g transform="translate(310.009073 115.059944) scale(0.1 -0.1)">
     <defs>
      <path id="Lato-Regular-37" d="M 3459 4586 
L 3459 4330 
Q 3459 4221 3435 4150 
Q 3411 4080 3389 4032 
L 1488 202 
Q 1446 118 1372 59 
Q 1299 0 1178 0 
L 768 0 
L 2694 3782 
Q 2736 3862 2781 3929 
Q 2826 3997 2877 4058 
L 483 4058 
Q 429 4058 387 4101 
Q 346 4144 346 4198 
L 346 4586 
L 3459 4586 
z
" transform="scale(0.015625)"/>
     </defs>
     <use xlink:href="#Lato-Regular-32"/>
     <use xlink:href="#Lato-Regular-37" x="58"/>
    </g>
   </g>
   <g id="text_17">
    <!-- 17 -->
    <g transform="translate(361.594223 158.075848) scale(0.1 -0.1)">
     <use xlink:href="#Lato-Regular-31"/>
     <use xlink:href="#Lato-Regular-37" x="58"/>
    </g>
   </g>
   <g id="text_18">
    <!-- 30 -->
    <g transform="translate(413.179372 102.155173) scale(0.1 -0.1)">
     <use xlink:href="#Lato-Regular-33"/>
     <use xlink:href="#Lato-Regular-30" x="58"/>
    </g>
   </g>
   <g id="text_19">
    <!-- 29 -->
    <g transform="translate(464.764522 106.456763) scale(0.1 -0.1)">
     <defs>
      <path id="Lato-Regular-39" d="M 906 3238 
Q 906 3021 968 2849 
Q 1030 2678 1147 2560 
Q 1264 2442 1432 2381 
Q 1600 2320 1808 2320 
Q 2038 2320 2216 2395 
Q 2394 2470 2515 2595 
Q 2637 2720 2701 2883 
Q 2765 3046 2765 3222 
Q 2765 3437 2696 3611 
Q 2627 3786 2505 3907 
Q 2384 4029 2216 4094 
Q 2048 4160 1846 4160 
Q 1635 4160 1462 4091 
Q 1290 4022 1165 3900 
Q 1040 3779 973 3609 
Q 906 3440 906 3238 
z
M 2237 1827 
Q 2307 1920 2368 2003 
Q 2429 2086 2483 2170 
Q 2307 2029 2086 1955 
Q 1866 1882 1619 1882 
Q 1360 1882 1128 1968 
Q 896 2054 720 2222 
Q 544 2390 440 2635 
Q 336 2880 336 3197 
Q 336 3498 448 3760 
Q 560 4022 761 4217 
Q 963 4413 1241 4525 
Q 1520 4637 1853 4637 
Q 2182 4637 2451 4528 
Q 2720 4419 2912 4224 
Q 3104 4029 3208 3757 
Q 3312 3485 3312 3155 
Q 3312 2957 3275 2779 
Q 3238 2602 3169 2430 
Q 3101 2259 3001 2091 
Q 2902 1923 2778 1747 
L 1661 134 
Q 1619 74 1542 37 
Q 1466 0 1366 0 
L 842 0 
L 2237 1827 
z
" transform="scale(0.015625)"/>
     </defs>
     <use xlink:href="#Lato-Regular-32"/>
     <use xlink:href="#Lato-Regular-39" x="58"/>
    </g>
   </g>
   <g id="text_20">
    <!-- 3.12 vs. 3.10 by category -->
    <g transform="translate(326.806172 11.83899) scale(0.12 -0.12)">
     <defs>
      <path id="Lato-Regular-2e" d="M 355 352 
Q 355 435 385 508 
Q 416 582 469 636 
Q 522 691 595 723 
Q 669 755 752 755 
Q 835 755 908 723 
Q 982 691 1036 636 
Q 1091 582 1123 508 
Q 1155 435 1155 352 
Q 1155 266 1123 194 
Q 1091 122 1036 67 
Q 982 13 908 -17 
Q 835 -48 752 -48 
Q 669 -48 595 -17 
Q 522 13 469 67 
Q 416 122 385 194 
Q 355 266 355 352 
z
" transform="scale(0.015625)"/>
     </defs>
     <use xlink:href="#Lato-Regular-33"/>
     <use xlink:href="#Lato-Regular-2e" x="58"/>
     <use xlink:href="#Lato-Regular-31" x="81.600006"/>
     <use xlink:href="#Lato-Regular-32" x="139.600006"/>
     <use xlink:href="#Lato-Regular-20" x="197.600006"/>
     <use xlink:href="#Lato-Regular-76" x="223.200012"/>
     <use xlink:href="#Lato-Regular-73" x="274.800018"/>
     <use xlink:href="#Lato-Regular-2e" x="318.100021"/>
     <use xlink:href="#Lato-Regular-20" x="341.700027"/>
     <use xlink:href="#Lato-Regular-33" x="367.300034"/>
     <use xlink:href="#Lato-Regular-2e" x="425.300034"/>
     <use xlink:href="#Lato-Regular-31" x="448.90004"/>
     <use xlink:href="#Lato-Regular-30" x="506.90004"/>
     <use xlink:href="#Lato-Regular-20" x="564.90004"/>
     <use xlink:href="#Lato-Regular-62" x="590.500046"/>
     <use xlink:href="#Lato-Regular-79" x="646.500046"/>
     <use xlink:href="#Lato-Regular-20" x="698.050049"/>
     <use xlink:href="#Lato-Regular-63" x="723.650055"/>
     <use xlink:href="#Lato-Regular-61" x="771.400055"/>
     <use xlink:href="#Lato-Regular-74" x="821.100067"/>
     <use xlink:href="#Lato-Regular-65" x="856.950073"/>
     <use xlink:href="#Lato-Regular-67" x="909.750076"/>
     <use xlink:href="#Lato-Regular-6f" x="961.750076"/>
     <use xlink:href="#Lato-Regular-72" x="1018.450089"/>
     <use xlink:href="#Lato-Regular-79" x="1054.850098"/>
    </g>
   </g>
  </g>
 </g>
 <defs>
  <clipPath id="pe0746f956f">
   <rect x="285.373835" y="17.83899" width="215.625925" height="215.07952"/>
  </clipPath>
 </defs>
</svg>
