<?xml version="1.0" encoding="utf-8" standalone="no"?>
<!DOCTYPE svg PUBLIC "-//W3C//DTD SVG 1.1//EN"
  "http://www.w3.org/Graphics/SVG/1.1/DTD/svg11.dtd">
<svg xmlns:xlink="http://www.w3.org/1999/xlink" width="460.8pt" height="345.6pt" viewBox="0 0 460.8 345.6" xmlns="http://www.w3.org/2000/svg" version="1.1">
 <metadata>
  <rdf:RDF xmlns:dc="http://purl.org/dc/elements/1.1/" xmlns:cc="http://creativecommons.org/ns#" xmlns:rdf="http://www.w3.org/1999/02/22-rdf-syntax-ns#">
   <cc:Work>
    <dc:type rdf:resource="http://purl.org/dc/dcmitype/StillImage"/>
    <dc:date>2024-04-23T11:04:41.588521</dc:date>
    <dc:format>image/svg+xml</dc:format>
    <dc:creator>
     <cc:Agent>
      <dc:title>Matplotlib v3.8.4, https://matplotlib.org/</dc:title>
     </cc:Agent>
    </dc:creator>
   </cc:Work>
  </rdf:RDF>
 </metadata>
 <defs>
  <style type="text/css">*{stroke-linejoin: round; stroke-linecap: butt}</style>
 </defs>
 <g id="figure_1">
  <g id="patch_1">
   <path d="M 0 345.6 
L 460.8 345.6 
L 460.8 0 
L 0 0 
L 0 345.6 
z
" style="fill: none"/>
  </g>
  <g id="axes_1">
   <g id="patch_2">
    <path d="M 204.959808 172.8 
C 204.959808 162.19798 203.081414 151.679324 199.411874 141.7326 
C 195.742335 131.785877 190.339356 122.567509 183.453895 114.505669 
C 176.568433 106.44383 168.308771 99.6653 159.058551 94.484927 
C 149.808331 89.304555 139.713023 85.803806 129.241531 84.145285 
C 118.770039 82.486763 108.08704 82.69655 97.688734 84.764901 
C 87.290429 86.833252 77.340342 90.72764 68.300633 96.26718 
C 59.260925 101.80672 51.273754 108.904296 44.710107 117.230241 
C 38.14646 125.556187 33.109557 134.979567 29.833352 145.062688 
C 26.557147 155.145808 25.093161 165.7301 25.509393 176.323946 
C 25.925626 186.917792 28.215531 197.354594 32.272747 207.149584 
C 36.329964 216.944573 42.090688 225.943715 49.287346 233.729018 
C 56.484005 241.514321 65.003422 247.963352 74.449891 252.77657 
C 83.89636 257.589787 94.121323 260.691498 104.649855 261.937633 
C 115.178387 263.183768 125.844914 262.554731 136.154 260.07974 
C 146.463085 257.604749 156.252609 253.322725 165.067867 247.43256 
C 173.883125 241.542394 181.58549 234.136716 187.817202 225.559502 
L 115.2 172.8 
z
" style="fill: #1f77b4"/>
   </g>
   <g id="patch_3">
    <path d="M 187.817202 225.559502 
C 193.3535 217.939445 197.656042 209.495234 200.566646 200.537318 
C 203.477251 191.579403 204.959807 182.218923 204.959808 172.800013 
L 115.2 172.8 
z
" style="fill: #ff7f0e"/>
   </g>
   <g id="matplotlib.axis_1"/>
   <g id="matplotlib.axis_2"/>
   <g id="text_1">
    <!-- Code -->
    <g transform="translate(101.262187 54.60024) scale(0.12 -0.12)">
     <defs>
      <path id="Lato-Regular-43" d="M 3805 947 
Q 3856 947 3894 906 
L 4141 640 
Q 3859 314 3457 131 
Q 3056 -51 2486 -51 
Q 1994 -51 1590 120 
Q 1187 291 902 600 
Q 618 909 461 1341 
Q 304 1773 304 2291 
Q 304 2810 467 3242 
Q 630 3674 926 3984 
Q 1222 4294 1635 4465 
Q 2048 4637 2547 4637 
Q 3037 4637 3411 4480 
Q 3786 4323 4070 4054 
L 3866 3770 
Q 3846 3738 3816 3717 
Q 3786 3696 3734 3696 
Q 3677 3696 3593 3758 
Q 3510 3821 3376 3897 
Q 3242 3974 3040 4036 
Q 2838 4099 2544 4099 
Q 2189 4099 1894 3976 
Q 1600 3853 1387 3619 
Q 1174 3386 1056 3050 
Q 938 2714 938 2291 
Q 938 1862 1061 1526 
Q 1184 1190 1397 958 
Q 1610 726 1899 604 
Q 2189 483 2525 483 
Q 2730 483 2894 507 
Q 3059 531 3198 582 
Q 3338 634 3458 712 
Q 3578 790 3696 899 
Q 3750 947 3805 947 
z
" transform="scale(0.015625)"/>
      <path id="Lato-Regular-6f" d="M 1818 3293 
Q 2173 3293 2457 3174 
Q 2742 3056 2944 2838 
Q 3146 2621 3253 2312 
Q 3360 2003 3360 1622 
Q 3360 1238 3253 931 
Q 3146 624 2944 406 
Q 2742 189 2457 72 
Q 2173 -45 1818 -45 
Q 1459 -45 1172 72 
Q 886 189 684 406 
Q 483 624 376 931 
Q 269 1238 269 1622 
Q 269 2003 376 2312 
Q 483 2621 684 2838 
Q 886 3056 1172 3174 
Q 1459 3293 1818 3293 
z
M 1818 400 
Q 2298 400 2534 721 
Q 2771 1043 2771 1619 
Q 2771 2198 2534 2521 
Q 2298 2845 1818 2845 
Q 1574 2845 1393 2761 
Q 1213 2678 1093 2521 
Q 973 2365 913 2136 
Q 854 1907 854 1619 
Q 854 1043 1092 721 
Q 1331 400 1818 400 
z
" transform="scale(0.015625)"/>
      <path id="Lato-Regular-64" d="M 2563 2470 
Q 2403 2685 2217 2769 
Q 2032 2854 1802 2854 
Q 1350 2854 1107 2531 
Q 864 2208 864 1610 
Q 864 1293 918 1067 
Q 973 842 1078 696 
Q 1184 550 1337 483 
Q 1491 416 1686 416 
Q 1968 416 2177 544 
Q 2387 672 2563 906 
L 2563 2470 
z
M 3133 4714 
L 3133 0 
L 2794 0 
Q 2672 0 2640 118 
L 2589 512 
Q 2381 262 2115 108 
Q 1850 -45 1501 -45 
Q 1222 -45 995 62 
Q 768 170 608 378 
Q 448 586 361 896 
Q 275 1206 275 1610 
Q 275 1968 371 2277 
Q 467 2586 646 2813 
Q 826 3040 1086 3169 
Q 1347 3299 1674 3299 
Q 1971 3299 2184 3198 
Q 2397 3098 2563 2918 
L 2563 4714 
L 3133 4714 
z
" transform="scale(0.015625)"/>
      <path id="Lato-Regular-65" d="M 2621 1974 
Q 2621 2173 2565 2337 
Q 2509 2502 2401 2622 
Q 2294 2742 2140 2808 
Q 1987 2874 1792 2874 
Q 1382 2874 1144 2635 
Q 906 2397 848 1974 
L 2621 1974 
z
M 3082 454 
Q 2976 326 2829 232 
Q 2682 138 2514 77 
Q 2346 16 2166 -14 
Q 1987 -45 1811 -45 
Q 1475 -45 1192 68 
Q 909 182 702 401 
Q 496 621 381 944 
Q 266 1267 266 1686 
Q 266 2026 370 2320 
Q 474 2614 669 2830 
Q 864 3046 1145 3169 
Q 1427 3293 1779 3293 
Q 2070 3293 2318 3195 
Q 2566 3098 2747 2914 
Q 2928 2730 3030 2459 
Q 3133 2189 3133 1843 
Q 3133 1709 3104 1664 
Q 3075 1619 2995 1619 
L 829 1619 
Q 838 1312 913 1085 
Q 989 858 1123 706 
Q 1258 554 1443 478 
Q 1629 403 1859 403 
Q 2074 403 2229 452 
Q 2384 502 2496 560 
Q 2608 618 2683 667 
Q 2758 717 2813 717 
Q 2883 717 2922 662 
L 3082 454 
z
" transform="scale(0.015625)"/>
     </defs>
     <use xlink:href="#Lato-Regular-43"/>
     <use xlink:href="#Lato-Regular-6f" x="66.800003"/>
     <use xlink:href="#Lato-Regular-64" x="123.500015"/>
     <use xlink:href="#Lato-Regular-65" x="179.500015"/>
    </g>
   </g>
  </g>
  <g id="axes_2">
   <g id="patch_4">
    <path d="M 435.359808 172.8 
C 435.359808 163.38109 433.877254 154.020609 430.96665 145.062694 
C 428.056047 136.104778 423.753506 127.660566 418.21721 120.040508 
L 345.6 172.8 
z
" style="fill: #1f77b4"/>
   </g>
   <g id="patch_5">
    <path d="M 418.21721 120.040508 
C 411.985498 111.463293 404.283135 104.057614 395.467877 98.167447 
C 386.65262 92.27728 376.863097 87.995255 366.554012 85.520263 
C 356.244926 83.04527 345.578399 82.416232 335.049867 83.662366 
C 324.521336 84.908499 314.296371 88.010208 304.849902 92.823424 
C 295.403433 97.63664 286.884014 104.085671 279.687355 111.870973 
C 272.490695 119.656275 266.72997 128.655415 262.672752 138.450405 
C 258.615534 148.245394 256.325628 158.682195 255.909394 169.276041 
C 255.49316 179.869888 256.957144 190.45418 260.233348 200.5373 
C 263.509552 210.620421 268.546453 220.043802 275.110099 228.369749 
C 281.673745 236.695695 289.660915 243.793272 298.700623 249.332813 
C 307.74033 254.872355 317.690417 258.766744 328.088722 260.835097 
C 338.487027 262.903449 349.170027 263.113238 359.641518 261.454717 
C 370.11301 259.796197 380.208319 256.29545 389.45854 251.115079 
C 398.708761 245.934708 406.968424 239.156179 413.853886 231.09434 
C 420.739349 223.032502 426.142329 213.814135 429.81187 203.867412 
C 433.481411 193.920689 435.359807 183.402033 435.359808 172.800013 
L 345.6 172.8 
z
" style="fill: #ff7f0e"/>
   </g>
   <g id="matplotlib.axis_3"/>
   <g id="matplotlib.axis_4"/>
   <g id="text_2">
    <!-- Time -->
    <g transform="translate(332.514375 54.60024) scale(0.12 -0.12)">
     <defs>
      <path id="Lato-Regular-54" d="M 3686 4064 
L 2202 4064 
L 2202 0 
L 1584 0 
L 1584 4064 
L 96 4064 
L 96 4586 
L 3686 4586 
L 3686 4064 
z
" transform="scale(0.015625)"/>
      <path id="Lato-Regular-69" d="M 1053 3242 
L 1053 0 
L 483 0 
L 483 3242 
L 1053 3242 
z
M 1174 4259 
Q 1174 4176 1140 4104 
Q 1107 4032 1051 3976 
Q 995 3920 920 3888 
Q 845 3856 762 3856 
Q 678 3856 606 3888 
Q 534 3920 480 3976 
Q 426 4032 394 4104 
Q 362 4176 362 4259 
Q 362 4342 394 4417 
Q 426 4493 480 4549 
Q 534 4605 606 4637 
Q 678 4669 762 4669 
Q 845 4669 920 4637 
Q 995 4605 1051 4549 
Q 1107 4493 1140 4417 
Q 1174 4342 1174 4259 
z
" transform="scale(0.015625)"/>
      <path id="Lato-Regular-6d" d="M 451 0 
L 451 3242 
L 794 3242 
Q 915 3242 944 3123 
L 986 2790 
Q 1165 3011 1389 3152 
Q 1613 3293 1907 3293 
Q 2234 3293 2437 3110 
Q 2640 2928 2730 2618 
Q 2800 2794 2910 2922 
Q 3021 3050 3158 3133 
Q 3296 3216 3451 3254 
Q 3606 3293 3766 3293 
Q 4022 3293 4222 3211 
Q 4422 3130 4561 2973 
Q 4701 2816 4774 2587 
Q 4848 2358 4848 2064 
L 4848 0 
L 4275 0 
L 4275 2064 
Q 4275 2445 4108 2641 
Q 3942 2838 3629 2838 
Q 3488 2838 3361 2788 
Q 3235 2739 3139 2643 
Q 3043 2547 2987 2401 
Q 2931 2256 2931 2064 
L 2931 0 
L 2358 0 
L 2358 2064 
Q 2358 2454 2201 2646 
Q 2045 2838 1744 2838 
Q 1533 2838 1353 2724 
Q 1174 2611 1024 2416 
L 1024 0 
L 451 0 
z
" transform="scale(0.015625)"/>
     </defs>
     <use xlink:href="#Lato-Regular-54"/>
     <use xlink:href="#Lato-Regular-69" x="59.050003"/>
     <use xlink:href="#Lato-Regular-6d" x="83.050003"/>
     <use xlink:href="#Lato-Regular-65" x="165.300018"/>
    </g>
   </g>
  </g>
 </g>
</svg>
