<?xml version="1.0" encoding="utf-8" standalone="no"?>
<!DOCTYPE svg PUBLIC "-//W3C//DTD SVG 1.1//EN"
  "http://www.w3.org/Graphics/SVG/1.1/DTD/svg11.dtd">
<svg xmlns:xlink="http://www.w3.org/1999/xlink" width="360pt" height="216pt" viewBox="0 0 360 216" xmlns="http://www.w3.org/2000/svg" version="1.1">
 <metadata>
  <rdf:RDF xmlns:dc="http://purl.org/dc/elements/1.1/" xmlns:cc="http://creativecommons.org/ns#" xmlns:rdf="http://www.w3.org/1999/02/22-rdf-syntax-ns#">
   <cc:Work>
    <dc:type rdf:resource="http://purl.org/dc/dcmitype/StillImage"/>
    <dc:date>2024-04-26T14:31:14.052420</dc:date>
    <dc:format>image/svg+xml</dc:format>
    <dc:creator>
     <cc:Agent>
      <dc:title>Matplotlib v3.8.4, https://matplotlib.org/</dc:title>
     </cc:Agent>
    </dc:creator>
   </cc:Work>
  </rdf:RDF>
 </metadata>
 <defs>
  <style type="text/css">*{stroke-linejoin: round; stroke-linecap: butt}</style>
 </defs>
 <g id="figure_1">
  <g id="patch_1">
   <path d="M 0 216 
L 360 216 
L 360 0 
L 0 0 
L 0 216 
z
" style="fill: none"/>
  </g>
  <g id="axes_1">
   <g id="patch_2">
    <path d="M 263.999808 108 
C 263.999808 93.638975 260.316959 79.515042 253.304413 66.982555 
C 246.291866 54.450067 236.181168 43.922835 223.94184 36.410319 
C 211.702512 28.897803 197.738683 24.64806 183.389352 24.068599 
C 169.040022 23.489139 154.778991 26.599094 141.973757 33.10025 
L 180 108 
z
" style="fill: #9467bd"/>
   </g>
   <g id="patch_3">
    <path d="M 141.973757 33.10025 
C 132.27301 38.025272 123.62082 44.788323 116.499067 53.012736 
C 109.377314 61.237148 103.920713 70.76735 100.433168 81.072561 
L 180 108 
z
" style="fill: #7f7f7f"/>
   </g>
   <g id="patch_4">
    <path d="M 100.433168 81.072561 
C 97.656333 89.277721 96.165343 97.863259 96.013157 106.524223 
C 95.86097 115.185188 97.049411 123.817807 99.536266 132.115458 
L 180 108 
z
" style="fill: #e377c2"/>
   </g>
   <g id="patch_5">
    <path d="M 99.536266 132.115458 
C 101.977967 140.262447 105.642897 147.991553 110.405518 155.038025 
C 115.168139 162.084497 120.973444 168.366951 127.62258 173.670188 
L 180 108 
z
" style="fill: #d62728"/>
   </g>
   <g id="patch_6">
    <path d="M 127.62258 173.670188 
C 131.496444 176.759916 135.636115 179.500816 139.993142 181.860808 
C 144.350168 184.220801 148.907485 186.190642 153.611752 187.747277 
L 180 108 
z
" style="fill: #bcbd22"/>
   </g>
   <g id="patch_7">
    <path d="M 153.611752 187.747277 
C 157.488073 189.029945 161.452762 190.02828 165.474276 190.73434 
C 169.495791 191.440401 173.563439 191.852308 177.64486 191.966785 
L 180 108 
z
" style="fill: #8c564b"/>
   </g>
   <g id="patch_8">
    <path d="M 177.64486 191.966785 
C 181.553682 192.076422 185.465393 191.912979 189.351445 191.477651 
C 193.237497 191.042322 197.088412 190.33617 200.876086 189.364346 
L 180 108 
z
" style="fill: #ff7f0e"/>
   </g>
   <g id="patch_9">
    <path d="M 200.876086 189.364346 
C 204.183048 188.515861 207.435208 187.466553 210.614464 186.222262 
C 213.79372 184.977972 216.894161 183.541012 219.898531 181.919381 
L 180 108 
z
" style="fill: #dddddd"/>
   </g>
   <g id="patch_10">
    <path d="M 219.898531 181.919381 
C 222.514517 180.507384 225.053703 178.957513 227.505372 177.276312 
C 229.95704 175.595111 232.317735 173.784949 234.57749 171.853467 
L 180 108 
z
" style="fill: url(#h1705d55395)"/>
   </g>
   <g id="patch_11">
    <path d="M 234.57749 171.853467 
C 236.781597 169.96955 238.886683 167.972774 240.884291 165.871157 
C 242.881899 163.769541 244.769353 161.565903 246.53907 159.269093 
L 180 108 
z
" style="fill: #2ca02c"/>
   </g>
   <g id="patch_12">
    <path d="M 246.53907 159.269093 
C 247.965726 157.417522 249.314476 155.507208 250.581798 153.54314 
C 251.849119 151.579072 253.033908 149.562961 254.13307 147.500072 
L 180 108 
z
" style="fill: url(#h2eb3ac573b)"/>
   </g>
   <g id="patch_13">
    <path d="M 254.13307 147.500072 
C 255.203821 145.490504 256.192418 143.438229 257.09641 141.348332 
C 258.000403 139.258435 258.819044 137.132644 259.550304 134.976228 
L 180 108 
z
" style="fill: url(#he729c1129b)"/>
   </g>
   <g id="patch_14">
    <path d="M 259.550304 134.976228 
C 259.896168 133.956307 260.222386 132.929829 260.528776 131.897363 
C 260.835166 130.864897 261.121672 129.826634 261.388134 128.783151 
L 180 108 
z
" style="fill: url(#h39aba051b0)"/>
   </g>
   <g id="patch_15">
    <path d="M 261.388134 128.783151 
C 261.601336 127.948238 261.801678 127.110095 261.989089 126.269018 
C 262.1765 125.42794 262.350958 124.584029 262.5124 123.737584 
L 180 108 
z
" style="fill: url(#hd94c737468)"/>
   </g>
   <g id="patch_16">
    <path d="M 262.5124 123.737584 
C 262.652149 123.004881 262.782131 122.27035 262.902313 121.534185 
C 263.022496 120.79802 263.132867 120.060287 263.233398 119.321182 
L 180 108 
z
" style="fill: url(#h8f8a3a2c29)"/>
   </g>
   <g id="patch_17">
    <path d="M 263.233398 119.321182 
C 263.3018 118.818295 263.365642 118.314799 263.424917 117.810755 
C 263.484193 117.306711 263.538899 116.80214 263.589029 116.297104 
L 180 108 
z
" style="fill: url(#hfaf831af14)"/>
   </g>
   <g id="patch_18">
    <path d="M 263.589029 116.297104 
C 263.638409 115.799627 263.683347 115.301718 263.723838 114.803438 
C 263.764328 114.305159 263.800369 113.806527 263.831957 113.307604 
L 180 108 
z
" style="fill: url(#h9a4bc1b8a1)"/>
   </g>
   <g id="patch_19">
    <path d="M 263.831957 113.307604 
C 263.852924 112.976447 263.871928 112.645168 263.888968 112.313785 
C 263.906009 111.982403 263.921086 111.650922 263.934198 111.319361 
L 180 108 
z
" style="fill: url(#h15a38bd450)"/>
   </g>
   <g id="patch_20">
    <path d="M 263.934198 111.319361 
C 263.94586 111.024473 263.955968 110.729527 263.964521 110.434533 
C 263.973074 110.139539 263.980073 109.844502 263.985517 109.549435 
L 180 108 
z
" style="fill: url(#h09ffbbd795)"/>
   </g>
   <g id="patch_21">
    <path d="M 263.985517 109.549435 
C 263.987087 109.464307 263.988528 109.379176 263.98984 109.294044 
C 263.991151 109.208911 263.992334 109.123777 263.993386 109.038641 
L 180 108 
z
" style="fill: url(#hb4402eba9b)"/>
   </g>
   <g id="patch_22">
    <path d="M 263.993386 109.038641 
C 263.995527 108.865536 263.997132 108.692424 263.998203 108.519308 
C 263.999273 108.346193 263.999808 108.173075 263.999808 107.999956 
L 180 108 
z
" style="fill: #dddddd"/>
   </g>
   <g id="matplotlib.axis_1"/>
   <g id="matplotlib.axis_2"/>
   <g id="text_1">
    <!-- interpreter 32.48% -->
    <g transform="translate(228.336024 30.946351) scale(0.06 -0.06)">
     <defs>
      <path id="Lato-Regular-69" d="M 1053 3242 
L 1053 0 
L 483 0 
L 483 3242 
L 1053 3242 
z
M 1174 4259 
Q 1174 4176 1140 4104 
Q 1107 4032 1051 3976 
Q 995 3920 920 3888 
Q 845 3856 762 3856 
Q 678 3856 606 3888 
Q 534 3920 480 3976 
Q 426 4032 394 4104 
Q 362 4176 362 4259 
Q 362 4342 394 4417 
Q 426 4493 480 4549 
Q 534 4605 606 4637 
Q 678 4669 762 4669 
Q 845 4669 920 4637 
Q 995 4605 1051 4549 
Q 1107 4493 1140 4417 
Q 1174 4342 1174 4259 
z
" transform="scale(0.015625)"/>
      <path id="Lato-Regular-6e" d="M 989 2771 
Q 1094 2890 1212 2986 
Q 1331 3082 1464 3150 
Q 1597 3219 1745 3256 
Q 1894 3293 2067 3293 
Q 2333 3293 2536 3205 
Q 2739 3117 2875 2955 
Q 3011 2794 3081 2566 
Q 3152 2339 3152 2064 
L 3152 0 
L 2579 0 
L 2579 2064 
Q 2579 2432 2411 2635 
Q 2243 2838 1901 2838 
Q 1648 2838 1429 2716 
Q 1210 2595 1024 2387 
L 1024 0 
L 451 0 
L 451 3242 
L 794 3242 
Q 915 3242 944 3123 
L 989 2771 
z
" transform="scale(0.015625)"/>
      <path id="Lato-Regular-74" d="M 1446 -51 
Q 1062 -51 856 163 
Q 650 378 650 781 
L 650 2765 
L 259 2765 
Q 208 2765 173 2795 
Q 138 2826 138 2890 
L 138 3117 
L 669 3184 
L 800 4186 
Q 810 4234 843 4264 
Q 877 4294 931 4294 
L 1219 4294 
L 1219 3178 
L 2157 3178 
L 2157 2765 
L 1219 2765 
L 1219 819 
Q 1219 614 1318 515 
Q 1418 416 1574 416 
Q 1664 416 1729 440 
Q 1795 464 1843 493 
Q 1891 522 1924 546 
Q 1958 570 1984 570 
Q 2029 570 2064 515 
L 2230 243 
Q 2083 106 1875 27 
Q 1667 -51 1446 -51 
z
" transform="scale(0.015625)"/>
      <path id="Lato-Regular-65" d="M 2621 1974 
Q 2621 2173 2565 2337 
Q 2509 2502 2401 2622 
Q 2294 2742 2140 2808 
Q 1987 2874 1792 2874 
Q 1382 2874 1144 2635 
Q 906 2397 848 1974 
L 2621 1974 
z
M 3082 454 
Q 2976 326 2829 232 
Q 2682 138 2514 77 
Q 2346 16 2166 -14 
Q 1987 -45 1811 -45 
Q 1475 -45 1192 68 
Q 909 182 702 401 
Q 496 621 381 944 
Q 266 1267 266 1686 
Q 266 2026 370 2320 
Q 474 2614 669 2830 
Q 864 3046 1145 3169 
Q 1427 3293 1779 3293 
Q 2070 3293 2318 3195 
Q 2566 3098 2747 2914 
Q 2928 2730 3030 2459 
Q 3133 2189 3133 1843 
Q 3133 1709 3104 1664 
Q 3075 1619 2995 1619 
L 829 1619 
Q 838 1312 913 1085 
Q 989 858 1123 706 
Q 1258 554 1443 478 
Q 1629 403 1859 403 
Q 2074 403 2229 452 
Q 2384 502 2496 560 
Q 2608 618 2683 667 
Q 2758 717 2813 717 
Q 2883 717 2922 662 
L 3082 454 
z
" transform="scale(0.015625)"/>
      <path id="Lato-Regular-72" d="M 992 2592 
Q 1146 2925 1370 3112 
Q 1594 3299 1917 3299 
Q 2019 3299 2113 3276 
Q 2208 3254 2282 3206 
L 2240 2781 
Q 2221 2701 2144 2701 
Q 2099 2701 2012 2720 
Q 1926 2739 1818 2739 
Q 1664 2739 1544 2694 
Q 1424 2650 1329 2562 
Q 1235 2474 1160 2344 
Q 1085 2214 1024 2048 
L 1024 0 
L 451 0 
L 451 3242 
L 778 3242 
Q 870 3242 905 3206 
Q 941 3171 954 3085 
L 992 2592 
z
" transform="scale(0.015625)"/>
      <path id="Lato-Regular-70" d="M 1024 781 
Q 1181 570 1366 483 
Q 1552 397 1782 397 
Q 2237 397 2480 720 
Q 2723 1043 2723 1642 
Q 2723 1958 2667 2185 
Q 2611 2413 2505 2558 
Q 2400 2704 2246 2771 
Q 2093 2838 1898 2838 
Q 1619 2838 1409 2710 
Q 1200 2582 1024 2349 
L 1024 781 
z
M 995 2739 
Q 1200 2992 1469 3145 
Q 1738 3299 2083 3299 
Q 2365 3299 2592 3192 
Q 2819 3085 2979 2875 
Q 3139 2666 3225 2355 
Q 3312 2045 3312 1642 
Q 3312 1283 3216 974 
Q 3120 666 2939 440 
Q 2758 214 2497 84 
Q 2237 -45 1910 -45 
Q 1613 -45 1400 56 
Q 1187 157 1024 336 
L 1024 -1098 
L 451 -1098 
L 451 3242 
L 794 3242 
Q 915 3242 944 3123 
L 995 2739 
z
" transform="scale(0.015625)"/>
      <path id="Lato-Regular-20" transform="scale(0.015625)"/>
      <path id="Lato-Regular-33" d="M 416 3344 
Q 461 3658 589 3899 
Q 717 4141 913 4304 
Q 1110 4467 1364 4552 
Q 1619 4637 1914 4637 
Q 2205 4637 2451 4553 
Q 2698 4470 2875 4316 
Q 3053 4163 3152 3945 
Q 3251 3728 3251 3462 
Q 3251 3245 3195 3073 
Q 3139 2902 3035 2774 
Q 2931 2646 2784 2556 
Q 2637 2467 2454 2410 
Q 2902 2294 3128 2014 
Q 3354 1734 3354 1315 
Q 3354 998 3234 745 
Q 3114 493 2906 315 
Q 2698 138 2421 43 
Q 2144 -51 1827 -51 
Q 1462 -51 1203 40 
Q 944 131 765 291 
Q 586 451 470 670 
Q 355 890 275 1146 
L 522 1248 
Q 618 1290 709 1270 
Q 800 1251 842 1165 
Q 883 1075 945 950 
Q 1008 826 1117 710 
Q 1226 595 1394 515 
Q 1562 435 1821 435 
Q 2061 435 2241 513 
Q 2422 592 2542 717 
Q 2662 842 2723 995 
Q 2784 1149 2784 1299 
Q 2784 1485 2736 1638 
Q 2688 1792 2557 1904 
Q 2426 2016 2197 2080 
Q 1968 2144 1610 2144 
L 1610 2557 
Q 1904 2560 2110 2621 
Q 2317 2682 2446 2787 
Q 2576 2893 2635 3040 
Q 2694 3187 2694 3366 
Q 2694 3565 2632 3712 
Q 2570 3859 2461 3955 
Q 2352 4051 2203 4099 
Q 2054 4147 1882 4147 
Q 1709 4147 1560 4096 
Q 1411 4045 1297 3953 
Q 1184 3862 1107 3737 
Q 1030 3613 998 3462 
Q 957 3350 894 3313 
Q 832 3277 714 3293 
L 416 3344 
z
" transform="scale(0.015625)"/>
      <path id="Lato-Regular-32" d="M 3158 541 
Q 3251 541 3305 486 
Q 3360 432 3360 346 
L 3360 0 
L 301 0 
L 301 195 
Q 301 256 326 320 
Q 352 384 406 438 
L 1875 1914 
Q 2058 2099 2208 2270 
Q 2358 2442 2464 2614 
Q 2570 2787 2627 2964 
Q 2685 3142 2685 3344 
Q 2685 3546 2621 3698 
Q 2557 3850 2446 3949 
Q 2336 4048 2185 4097 
Q 2035 4147 1862 4147 
Q 1686 4147 1539 4096 
Q 1392 4045 1278 3953 
Q 1165 3862 1088 3737 
Q 1011 3613 979 3462 
Q 941 3350 875 3313 
Q 810 3277 691 3293 
L 394 3344 
Q 438 3658 568 3899 
Q 698 4141 894 4304 
Q 1091 4467 1344 4552 
Q 1597 4637 1891 4637 
Q 2182 4637 2435 4550 
Q 2688 4464 2873 4299 
Q 3059 4134 3164 3897 
Q 3270 3661 3270 3360 
Q 3270 3104 3193 2885 
Q 3117 2666 2985 2467 
Q 2854 2269 2683 2080 
Q 2512 1891 2320 1699 
L 1110 464 
Q 1238 499 1369 520 
Q 1501 541 1622 541 
L 3158 541 
z
" transform="scale(0.015625)"/>
      <path id="Lato-Regular-2e" d="M 355 352 
Q 355 435 385 508 
Q 416 582 469 636 
Q 522 691 595 723 
Q 669 755 752 755 
Q 835 755 908 723 
Q 982 691 1036 636 
Q 1091 582 1123 508 
Q 1155 435 1155 352 
Q 1155 266 1123 194 
Q 1091 122 1036 67 
Q 982 13 908 -17 
Q 835 -48 752 -48 
Q 669 -48 595 -17 
Q 522 13 469 67 
Q 416 122 385 194 
Q 355 266 355 352 
z
" transform="scale(0.015625)"/>
      <path id="Lato-Regular-34" d="M 2336 1654 
L 2336 3546 
Q 2336 3629 2342 3728 
Q 2349 3827 2362 3930 
L 691 1654 
L 2336 1654 
z
M 3530 1654 
L 3530 1328 
Q 3530 1277 3499 1241 
Q 3469 1206 3405 1206 
L 2835 1206 
L 2835 0 
L 2336 0 
L 2336 1206 
L 301 1206 
Q 237 1206 190 1243 
Q 144 1280 131 1334 
L 74 1626 
L 2304 4586 
L 2835 4586 
L 2835 1654 
L 3530 1654 
z
" transform="scale(0.015625)"/>
      <path id="Lato-Regular-38" d="M 1856 403 
Q 2080 403 2257 465 
Q 2435 528 2558 641 
Q 2682 755 2747 913 
Q 2813 1072 2813 1264 
Q 2813 1501 2734 1669 
Q 2656 1837 2523 1942 
Q 2390 2048 2217 2097 
Q 2045 2147 1856 2147 
Q 1667 2147 1494 2097 
Q 1322 2048 1189 1942 
Q 1056 1837 977 1669 
Q 899 1501 899 1264 
Q 899 1072 964 913 
Q 1030 755 1153 641 
Q 1277 528 1454 465 
Q 1632 403 1856 403 
z
M 1856 4195 
Q 1651 4195 1496 4134 
Q 1341 4074 1237 3968 
Q 1133 3862 1080 3721 
Q 1027 3581 1027 3421 
Q 1027 3264 1072 3117 
Q 1117 2970 1216 2856 
Q 1315 2742 1473 2673 
Q 1632 2605 1856 2605 
Q 2080 2605 2238 2673 
Q 2397 2742 2496 2856 
Q 2595 2970 2640 3117 
Q 2685 3264 2685 3421 
Q 2685 3581 2632 3721 
Q 2579 3862 2475 3968 
Q 2371 4074 2216 4134 
Q 2061 4195 1856 4195 
z
M 2512 2390 
Q 2941 2269 3171 1984 
Q 3402 1699 3402 1254 
Q 3402 954 3288 712 
Q 3174 470 2971 300 
Q 2768 131 2483 40 
Q 2198 -51 1856 -51 
Q 1514 -51 1229 40 
Q 944 131 739 300 
Q 534 470 422 712 
Q 310 954 310 1254 
Q 310 1699 540 1984 
Q 771 2269 1200 2390 
Q 838 2525 654 2792 
Q 470 3059 470 3430 
Q 470 3683 569 3904 
Q 669 4125 851 4288 
Q 1034 4451 1288 4544 
Q 1542 4637 1856 4637 
Q 2166 4637 2422 4544 
Q 2678 4451 2860 4288 
Q 3043 4125 3142 3904 
Q 3242 3683 3242 3430 
Q 3242 3059 3058 2792 
Q 2874 2525 2512 2390 
z
" transform="scale(0.015625)"/>
      <path id="Lato-Regular-25" d="M 2310 3478 
Q 2310 3210 2227 2997 
Q 2144 2784 2005 2638 
Q 1866 2493 1682 2416 
Q 1498 2339 1293 2339 
Q 1078 2339 892 2416 
Q 707 2493 571 2638 
Q 435 2784 358 2997 
Q 282 3210 282 3478 
Q 282 3754 358 3968 
Q 435 4182 571 4329 
Q 707 4477 892 4553 
Q 1078 4630 1293 4630 
Q 1510 4630 1696 4553 
Q 1882 4477 2019 4329 
Q 2157 4182 2233 3968 
Q 2310 3754 2310 3478 
z
M 1869 3478 
Q 1869 3690 1824 3837 
Q 1779 3984 1700 4078 
Q 1622 4173 1516 4214 
Q 1411 4256 1293 4256 
Q 1174 4256 1072 4214 
Q 970 4173 893 4078 
Q 816 3984 771 3837 
Q 726 3690 726 3478 
Q 726 3270 771 3124 
Q 816 2979 893 2888 
Q 970 2797 1072 2757 
Q 1174 2717 1293 2717 
Q 1411 2717 1516 2757 
Q 1622 2797 1700 2888 
Q 1779 2979 1824 3124 
Q 1869 3270 1869 3478 
z
M 3933 4490 
Q 3965 4528 4008 4557 
Q 4051 4586 4125 4586 
L 4538 4586 
L 1184 93 
Q 1155 51 1110 25 
Q 1066 0 1002 0 
L 582 0 
L 3933 4490 
z
M 4848 1082 
Q 4848 813 4765 601 
Q 4682 390 4542 244 
Q 4403 99 4219 22 
Q 4035 -54 3830 -54 
Q 3613 -54 3429 22 
Q 3245 99 3109 244 
Q 2973 390 2896 601 
Q 2819 813 2819 1082 
Q 2819 1357 2896 1573 
Q 2973 1789 3109 1936 
Q 3245 2083 3429 2160 
Q 3613 2237 3830 2237 
Q 4045 2237 4232 2160 
Q 4419 2083 4555 1936 
Q 4691 1789 4769 1573 
Q 4848 1357 4848 1082 
z
M 4406 1082 
Q 4406 1293 4361 1441 
Q 4317 1590 4238 1683 
Q 4160 1776 4054 1817 
Q 3949 1859 3830 1859 
Q 3712 1859 3608 1817 
Q 3504 1776 3427 1683 
Q 3350 1590 3307 1441 
Q 3264 1293 3264 1082 
Q 3264 874 3307 730 
Q 3350 586 3427 494 
Q 3504 403 3608 363 
Q 3712 323 3830 323 
Q 3949 323 4054 363 
Q 4160 403 4238 494 
Q 4317 586 4361 730 
Q 4406 874 4406 1082 
z
" transform="scale(0.015625)"/>
     </defs>
     <use xlink:href="#Lato-Regular-69"/>
     <use xlink:href="#Lato-Regular-6e" x="24"/>
     <use xlink:href="#Lato-Regular-74" x="79.800003"/>
     <use xlink:href="#Lato-Regular-65" x="115.650009"/>
     <use xlink:href="#Lato-Regular-72" x="168.450012"/>
     <use xlink:href="#Lato-Regular-70" x="204.850021"/>
     <use xlink:href="#Lato-Regular-72" x="260.900024"/>
     <use xlink:href="#Lato-Regular-65" x="297.300034"/>
     <use xlink:href="#Lato-Regular-74" x="350.100037"/>
     <use xlink:href="#Lato-Regular-65" x="385.950043"/>
     <use xlink:href="#Lato-Regular-72" x="438.750046"/>
     <use xlink:href="#Lato-Regular-20" x="475.150055"/>
     <use xlink:href="#Lato-Regular-33" x="500.750061"/>
     <use xlink:href="#Lato-Regular-32" x="558.750061"/>
     <use xlink:href="#Lato-Regular-2e" x="616.750061"/>
     <use xlink:href="#Lato-Regular-34" x="640.350067"/>
     <use xlink:href="#Lato-Regular-38" x="698.350067"/>
     <use xlink:href="#Lato-Regular-25" x="756.350067"/>
    </g>
   </g>
   <g id="text_2">
    <!-- memory 12.33% -->
    <g transform="translate(66.751161 49.209009) scale(0.06 -0.06)">
     <defs>
      <path id="Lato-Regular-6d" d="M 451 0 
L 451 3242 
L 794 3242 
Q 915 3242 944 3123 
L 986 2790 
Q 1165 3011 1389 3152 
Q 1613 3293 1907 3293 
Q 2234 3293 2437 3110 
Q 2640 2928 2730 2618 
Q 2800 2794 2910 2922 
Q 3021 3050 3158 3133 
Q 3296 3216 3451 3254 
Q 3606 3293 3766 3293 
Q 4022 3293 4222 3211 
Q 4422 3130 4561 2973 
Q 4701 2816 4774 2587 
Q 4848 2358 4848 2064 
L 4848 0 
L 4275 0 
L 4275 2064 
Q 4275 2445 4108 2641 
Q 3942 2838 3629 2838 
Q 3488 2838 3361 2788 
Q 3235 2739 3139 2643 
Q 3043 2547 2987 2401 
Q 2931 2256 2931 2064 
L 2931 0 
L 2358 0 
L 2358 2064 
Q 2358 2454 2201 2646 
Q 2045 2838 1744 2838 
Q 1533 2838 1353 2724 
Q 1174 2611 1024 2416 
L 1024 0 
L 451 0 
z
" transform="scale(0.015625)"/>
      <path id="Lato-Regular-6f" d="M 1818 3293 
Q 2173 3293 2457 3174 
Q 2742 3056 2944 2838 
Q 3146 2621 3253 2312 
Q 3360 2003 3360 1622 
Q 3360 1238 3253 931 
Q 3146 624 2944 406 
Q 2742 189 2457 72 
Q 2173 -45 1818 -45 
Q 1459 -45 1172 72 
Q 886 189 684 406 
Q 483 624 376 931 
Q 269 1238 269 1622 
Q 269 2003 376 2312 
Q 483 2621 684 2838 
Q 886 3056 1172 3174 
Q 1459 3293 1818 3293 
z
M 1818 400 
Q 2298 400 2534 721 
Q 2771 1043 2771 1619 
Q 2771 2198 2534 2521 
Q 2298 2845 1818 2845 
Q 1574 2845 1393 2761 
Q 1213 2678 1093 2521 
Q 973 2365 913 2136 
Q 854 1907 854 1619 
Q 854 1043 1092 721 
Q 1331 400 1818 400 
z
" transform="scale(0.015625)"/>
      <path id="Lato-Regular-79" d="M 3248 3242 
L 1440 -957 
Q 1411 -1021 1368 -1059 
Q 1325 -1098 1235 -1098 
L 813 -1098 
L 1405 189 
L 67 3242 
L 560 3242 
Q 634 3242 677 3205 
Q 720 3168 736 3123 
L 1603 1082 
Q 1654 947 1690 800 
Q 1734 950 1786 1085 
L 2627 3123 
Q 2646 3174 2692 3208 
Q 2739 3242 2797 3242 
L 3248 3242 
z
" transform="scale(0.015625)"/>
      <path id="Lato-Regular-31" d="M 3258 435 
L 3258 0 
L 800 0 
L 800 435 
L 1782 435 
L 1782 3562 
Q 1782 3702 1792 3846 
L 976 3146 
Q 934 3110 892 3102 
Q 851 3094 816 3100 
Q 781 3107 750 3126 
Q 720 3146 704 3168 
L 525 3414 
L 1891 4595 
L 2355 4595 
L 2355 435 
L 3258 435 
z
" transform="scale(0.015625)"/>
     </defs>
     <use xlink:href="#Lato-Regular-6d"/>
     <use xlink:href="#Lato-Regular-65" x="82.250015"/>
     <use xlink:href="#Lato-Regular-6d" x="135.050018"/>
     <use xlink:href="#Lato-Regular-6f" x="217.300034"/>
     <use xlink:href="#Lato-Regular-72" x="274.000046"/>
     <use xlink:href="#Lato-Regular-79" x="310.400055"/>
     <use xlink:href="#Lato-Regular-20" x="361.950058"/>
     <use xlink:href="#Lato-Regular-31" x="387.550064"/>
     <use xlink:href="#Lato-Regular-32" x="445.550064"/>
     <use xlink:href="#Lato-Regular-2e" x="503.550064"/>
     <use xlink:href="#Lato-Regular-33" x="527.15007"/>
     <use xlink:href="#Lato-Regular-33" x="585.15007"/>
     <use xlink:href="#Lato-Regular-25" x="643.15007"/>
    </g>
   </g>
   <g id="text_3">
    <!-- gc 9.83% -->
    <g transform="translate(63.428848 108.00602) scale(0.06 -0.06)">
     <defs>
      <path id="Lato-Regular-67" d="M 1581 1584 
Q 1754 1584 1885 1632 
Q 2016 1680 2105 1766 
Q 2195 1853 2240 1973 
Q 2285 2093 2285 2237 
Q 2285 2534 2104 2710 
Q 1923 2886 1581 2886 
Q 1235 2886 1054 2710 
Q 874 2534 874 2237 
Q 874 2093 920 1973 
Q 966 1853 1056 1766 
Q 1146 1680 1277 1632 
Q 1408 1584 1581 1584 
z
M 2608 -176 
Q 2608 -58 2541 16 
Q 2474 90 2360 131 
Q 2246 173 2096 190 
Q 1946 208 1778 217 
Q 1610 227 1437 236 
Q 1264 246 1104 269 
Q 925 186 811 59 
Q 698 -67 698 -237 
Q 698 -346 754 -440 
Q 810 -534 925 -603 
Q 1040 -672 1214 -712 
Q 1389 -752 1626 -752 
Q 1856 -752 2038 -710 
Q 2221 -669 2347 -592 
Q 2474 -515 2541 -409 
Q 2608 -304 2608 -176 
z
M 3187 3114 
L 3187 2902 
Q 3187 2797 3053 2768 
L 2685 2720 
Q 2794 2509 2794 2253 
Q 2794 2016 2702 1822 
Q 2611 1629 2451 1491 
Q 2291 1354 2067 1280 
Q 1843 1206 1581 1206 
Q 1354 1206 1152 1261 
Q 1050 1197 995 1125 
Q 941 1053 941 979 
Q 941 864 1035 805 
Q 1130 746 1283 720 
Q 1437 694 1633 688 
Q 1830 682 2036 667 
Q 2243 653 2440 617 
Q 2637 582 2790 502 
Q 2944 422 3038 281 
Q 3133 141 3133 -83 
Q 3133 -291 3029 -486 
Q 2925 -682 2729 -834 
Q 2534 -986 2251 -1077 
Q 1968 -1168 1613 -1168 
Q 1258 -1168 992 -1097 
Q 726 -1027 550 -908 
Q 374 -790 286 -635 
Q 198 -480 198 -310 
Q 198 -70 348 96 
Q 499 262 762 362 
Q 618 426 533 533 
Q 448 640 448 822 
Q 448 893 473 968 
Q 499 1043 552 1118 
Q 605 1194 681 1261 
Q 758 1328 861 1379 
Q 621 1514 486 1736 
Q 352 1958 352 2253 
Q 352 2490 443 2683 
Q 534 2877 697 3013 
Q 861 3149 1086 3222 
Q 1312 3296 1581 3296 
Q 1792 3296 1974 3249 
Q 2157 3203 2307 3114 
L 3187 3114 
z
" transform="scale(0.015625)"/>
      <path id="Lato-Regular-63" d="M 2707 2666 
Q 2682 2630 2656 2611 
Q 2630 2592 2586 2592 
Q 2538 2592 2480 2632 
Q 2422 2672 2337 2720 
Q 2253 2768 2129 2808 
Q 2006 2848 1827 2848 
Q 1587 2848 1404 2763 
Q 1222 2678 1099 2518 
Q 976 2358 913 2131 
Q 851 1904 851 1622 
Q 851 1328 918 1099 
Q 986 870 1109 715 
Q 1232 560 1406 478 
Q 1581 397 1798 397 
Q 2006 397 2140 446 
Q 2275 496 2363 557 
Q 2451 618 2510 667 
Q 2570 717 2627 717 
Q 2698 717 2736 662 
L 2896 454 
Q 2790 323 2656 230 
Q 2522 138 2366 75 
Q 2211 13 2041 -16 
Q 1872 -45 1696 -45 
Q 1392 -45 1131 67 
Q 870 179 678 392 
Q 486 605 377 915 
Q 269 1226 269 1622 
Q 269 1984 369 2291 
Q 470 2598 664 2820 
Q 858 3043 1141 3168 
Q 1424 3293 1792 3293 
Q 2134 3293 2395 3182 
Q 2656 3072 2858 2870 
L 2707 2666 
z
" transform="scale(0.015625)"/>
      <path id="Lato-Regular-39" d="M 906 3238 
Q 906 3021 968 2849 
Q 1030 2678 1147 2560 
Q 1264 2442 1432 2381 
Q 1600 2320 1808 2320 
Q 2038 2320 2216 2395 
Q 2394 2470 2515 2595 
Q 2637 2720 2701 2883 
Q 2765 3046 2765 3222 
Q 2765 3437 2696 3611 
Q 2627 3786 2505 3907 
Q 2384 4029 2216 4094 
Q 2048 4160 1846 4160 
Q 1635 4160 1462 4091 
Q 1290 4022 1165 3900 
Q 1040 3779 973 3609 
Q 906 3440 906 3238 
z
M 2237 1827 
Q 2307 1920 2368 2003 
Q 2429 2086 2483 2170 
Q 2307 2029 2086 1955 
Q 1866 1882 1619 1882 
Q 1360 1882 1128 1968 
Q 896 2054 720 2222 
Q 544 2390 440 2635 
Q 336 2880 336 3197 
Q 336 3498 448 3760 
Q 560 4022 761 4217 
Q 963 4413 1241 4525 
Q 1520 4637 1853 4637 
Q 2182 4637 2451 4528 
Q 2720 4419 2912 4224 
Q 3104 4029 3208 3757 
Q 3312 3485 3312 3155 
Q 3312 2957 3275 2779 
Q 3238 2602 3169 2430 
Q 3101 2259 3001 2091 
Q 2902 1923 2778 1747 
L 1661 134 
Q 1619 74 1542 37 
Q 1466 0 1366 0 
L 842 0 
L 2237 1827 
z
" transform="scale(0.015625)"/>
     </defs>
     <use xlink:href="#Lato-Regular-67"/>
     <use xlink:href="#Lato-Regular-63" x="52"/>
     <use xlink:href="#Lato-Regular-20" x="99.75"/>
     <use xlink:href="#Lato-Regular-39" x="125.350006"/>
     <use xlink:href="#Lato-Regular-2e" x="183.350006"/>
     <use xlink:href="#Lato-Regular-38" x="206.950012"/>
     <use xlink:href="#Lato-Regular-33" x="264.950012"/>
     <use xlink:href="#Lato-Regular-25" x="322.950012"/>
    </g>
   </g>
   <g id="text_4">
    <!-- library 9.65% -->
    <g transform="translate(68.58607 161.436828) scale(0.06 -0.06)">
     <defs>
      <path id="Lato-Regular-6c" d="M 1040 4714 
L 1040 0 
L 470 0 
L 470 4714 
L 1040 4714 
z
" transform="scale(0.015625)"/>
      <path id="Lato-Regular-62" d="M 1024 781 
Q 1181 570 1368 483 
Q 1555 397 1779 397 
Q 2237 397 2480 720 
Q 2723 1043 2723 1683 
Q 2723 2278 2507 2558 
Q 2291 2838 1891 2838 
Q 1613 2838 1406 2710 
Q 1200 2582 1024 2349 
L 1024 781 
z
M 1024 2774 
Q 1229 3011 1486 3152 
Q 1744 3293 2080 3293 
Q 2365 3293 2593 3184 
Q 2822 3075 2982 2868 
Q 3142 2662 3227 2368 
Q 3312 2074 3312 1706 
Q 3312 1312 3216 989 
Q 3120 666 2939 437 
Q 2758 208 2499 81 
Q 2240 -45 1917 -45 
Q 1597 -45 1377 75 
Q 1158 195 995 416 
L 966 122 
Q 941 0 819 0 
L 451 0 
L 451 4714 
L 1024 4714 
L 1024 2774 
z
" transform="scale(0.015625)"/>
      <path id="Lato-Regular-61" d="M 2208 1459 
Q 1814 1446 1537 1396 
Q 1261 1347 1086 1267 
Q 912 1187 833 1078 
Q 755 970 755 835 
Q 755 707 796 614 
Q 838 522 910 462 
Q 982 403 1080 376 
Q 1178 349 1290 349 
Q 1440 349 1565 379 
Q 1690 410 1800 467 
Q 1910 525 2011 605 
Q 2112 685 2208 787 
L 2208 1459 
z
M 368 2784 
Q 637 3043 947 3171 
Q 1258 3299 1635 3299 
Q 1907 3299 2118 3209 
Q 2330 3120 2474 2960 
Q 2618 2800 2691 2573 
Q 2765 2346 2765 2074 
L 2765 0 
L 2512 0 
Q 2429 0 2384 27 
Q 2339 54 2314 134 
L 2250 442 
Q 2122 323 2000 232 
Q 1878 141 1744 78 
Q 1610 16 1458 -17 
Q 1306 -51 1120 -51 
Q 931 -51 764 1 
Q 598 54 475 160 
Q 352 266 280 427 
Q 208 589 208 810 
Q 208 1002 313 1179 
Q 419 1357 656 1494 
Q 893 1632 1273 1720 
Q 1654 1808 2208 1821 
L 2208 2074 
Q 2208 2451 2045 2644 
Q 1882 2838 1568 2838 
Q 1357 2838 1214 2785 
Q 1072 2733 968 2667 
Q 864 2602 789 2549 
Q 714 2496 640 2496 
Q 582 2496 540 2526 
Q 499 2557 470 2602 
L 368 2784 
z
" transform="scale(0.015625)"/>
      <path id="Lato-Regular-36" d="M 1850 422 
Q 2080 422 2267 496 
Q 2454 570 2587 701 
Q 2720 832 2792 1011 
Q 2864 1190 2864 1402 
Q 2864 1626 2793 1806 
Q 2723 1987 2593 2113 
Q 2464 2240 2285 2307 
Q 2106 2374 1891 2374 
Q 1661 2374 1475 2296 
Q 1290 2218 1160 2085 
Q 1030 1952 961 1777 
Q 893 1603 893 1414 
Q 893 1194 957 1011 
Q 1021 829 1144 697 
Q 1267 566 1444 494 
Q 1622 422 1850 422 
z
M 1517 2867 
Q 1456 2790 1400 2718 
Q 1344 2646 1293 2576 
Q 1456 2688 1651 2749 
Q 1846 2810 2077 2810 
Q 2355 2810 2601 2718 
Q 2848 2627 3032 2452 
Q 3216 2278 3325 2024 
Q 3434 1770 3434 1443 
Q 3434 1126 3318 854 
Q 3203 582 2996 380 
Q 2790 179 2500 64 
Q 2211 -51 1862 -51 
Q 1517 -51 1235 59 
Q 954 170 757 373 
Q 560 576 453 865 
Q 346 1155 346 1514 
Q 346 1814 478 2155 
Q 611 2496 902 2883 
L 2067 4448 
Q 2112 4506 2190 4546 
Q 2269 4586 2371 4586 
L 2877 4586 
L 1517 2867 
z
" transform="scale(0.015625)"/>
      <path id="Lato-Regular-35" d="M 1158 2854 
Q 1517 2931 1818 2931 
Q 2176 2931 2451 2825 
Q 2726 2720 2910 2534 
Q 3094 2349 3188 2096 
Q 3283 1843 3283 1546 
Q 3283 1181 3156 886 
Q 3030 592 2808 382 
Q 2586 173 2285 61 
Q 1984 -51 1635 -51 
Q 1434 -51 1248 -11 
Q 1062 29 900 96 
Q 739 163 601 249 
Q 464 336 358 432 
L 534 675 
Q 592 758 685 758 
Q 749 758 829 708 
Q 909 659 1024 598 
Q 1139 538 1294 488 
Q 1450 438 1664 438 
Q 1904 438 2096 515 
Q 2288 592 2425 734 
Q 2563 877 2636 1075 
Q 2710 1274 2710 1520 
Q 2710 1734 2648 1907 
Q 2586 2080 2459 2201 
Q 2333 2323 2144 2390 
Q 1955 2458 1702 2458 
Q 1530 2458 1342 2429 
Q 1155 2400 960 2336 
L 602 2442 
L 970 4586 
L 3142 4586 
L 3142 4336 
Q 3142 4214 3067 4136 
Q 2992 4058 2810 4058 
L 1370 4058 
L 1158 2854 
z
" transform="scale(0.015625)"/>
     </defs>
     <use xlink:href="#Lato-Regular-6c"/>
     <use xlink:href="#Lato-Regular-69" x="23.600006"/>
     <use xlink:href="#Lato-Regular-62" x="47.600006"/>
     <use xlink:href="#Lato-Regular-72" x="103.600006"/>
     <use xlink:href="#Lato-Regular-61" x="140.000015"/>
     <use xlink:href="#Lato-Regular-72" x="189.700027"/>
     <use xlink:href="#Lato-Regular-79" x="226.100037"/>
     <use xlink:href="#Lato-Regular-20" x="277.65004"/>
     <use xlink:href="#Lato-Regular-39" x="303.250046"/>
     <use xlink:href="#Lato-Regular-2e" x="361.250046"/>
     <use xlink:href="#Lato-Regular-36" x="384.850052"/>
     <use xlink:href="#Lato-Regular-35" x="442.850052"/>
     <use xlink:href="#Lato-Regular-25" x="500.850052"/>
    </g>
   </g>
   <g id="text_5">
    <!-- dynamic 5.63% -->
    <g transform="translate(95.769018 190.941889) scale(0.06 -0.06)">
     <defs>
      <path id="Lato-Regular-64" d="M 2563 2470 
Q 2403 2685 2217 2769 
Q 2032 2854 1802 2854 
Q 1350 2854 1107 2531 
Q 864 2208 864 1610 
Q 864 1293 918 1067 
Q 973 842 1078 696 
Q 1184 550 1337 483 
Q 1491 416 1686 416 
Q 1968 416 2177 544 
Q 2387 672 2563 906 
L 2563 2470 
z
M 3133 4714 
L 3133 0 
L 2794 0 
Q 2672 0 2640 118 
L 2589 512 
Q 2381 262 2115 108 
Q 1850 -45 1501 -45 
Q 1222 -45 995 62 
Q 768 170 608 378 
Q 448 586 361 896 
Q 275 1206 275 1610 
Q 275 1968 371 2277 
Q 467 2586 646 2813 
Q 826 3040 1086 3169 
Q 1347 3299 1674 3299 
Q 1971 3299 2184 3198 
Q 2397 3098 2563 2918 
L 2563 4714 
L 3133 4714 
z
" transform="scale(0.015625)"/>
     </defs>
     <use xlink:href="#Lato-Regular-64"/>
     <use xlink:href="#Lato-Regular-79" x="56"/>
     <use xlink:href="#Lato-Regular-6e" x="107.550003"/>
     <use xlink:href="#Lato-Regular-61" x="163.350006"/>
     <use xlink:href="#Lato-Regular-6d" x="213.050018"/>
     <use xlink:href="#Lato-Regular-69" x="295.300034"/>
     <use xlink:href="#Lato-Regular-63" x="319.300034"/>
     <use xlink:href="#Lato-Regular-20" x="367.050034"/>
     <use xlink:href="#Lato-Regular-35" x="392.65004"/>
     <use xlink:href="#Lato-Regular-2e" x="450.65004"/>
     <use xlink:href="#Lato-Regular-36" x="474.250046"/>
     <use xlink:href="#Lato-Regular-33" x="532.250046"/>
     <use xlink:href="#Lato-Regular-25" x="590.250046"/>
    </g>
   </g>
   <g id="text_6">
    <!-- lookup 4.64% -->
    <g transform="translate(127.845454 200.702775) scale(0.06 -0.06)">
     <defs>
      <path id="Lato-Regular-6b" d="M 1024 4714 
L 1024 1939 
L 1171 1939 
Q 1235 1939 1278 1956 
Q 1322 1974 1370 2029 
L 2394 3126 
Q 2438 3181 2488 3211 
Q 2538 3242 2621 3242 
L 3136 3242 
L 1942 1971 
Q 1856 1862 1757 1802 
Q 1814 1763 1860 1713 
Q 1907 1664 1949 1600 
L 3216 0 
L 2707 0 
Q 2634 0 2581 24 
Q 2528 48 2490 112 
L 1424 1440 
Q 1376 1507 1329 1528 
Q 1283 1549 1187 1549 
L 1024 1549 
L 1024 0 
L 451 0 
L 451 4714 
L 1024 4714 
z
" transform="scale(0.015625)"/>
      <path id="Lato-Regular-75" d="M 3117 3242 
L 3117 0 
L 2778 0 
Q 2656 0 2624 118 
L 2579 467 
Q 2368 234 2105 91 
Q 1843 -51 1504 -51 
Q 1238 -51 1035 37 
Q 832 125 694 285 
Q 557 445 488 672 
Q 419 899 419 1174 
L 419 3242 
L 989 3242 
L 989 1174 
Q 989 806 1157 604 
Q 1325 403 1670 403 
Q 1923 403 2142 523 
Q 2362 643 2547 854 
L 2547 3242 
L 3117 3242 
z
" transform="scale(0.015625)"/>
     </defs>
     <use xlink:href="#Lato-Regular-6c"/>
     <use xlink:href="#Lato-Regular-6f" x="23.600006"/>
     <use xlink:href="#Lato-Regular-6f" x="80.300018"/>
     <use xlink:href="#Lato-Regular-6b" x="137.000031"/>
     <use xlink:href="#Lato-Regular-75" x="187.800034"/>
     <use xlink:href="#Lato-Regular-70" x="243.550034"/>
     <use xlink:href="#Lato-Regular-20" x="299.600037"/>
     <use xlink:href="#Lato-Regular-34" x="325.200043"/>
     <use xlink:href="#Lato-Regular-2e" x="383.200043"/>
     <use xlink:href="#Lato-Regular-36" x="406.800049"/>
     <use xlink:href="#Lato-Regular-34" x="464.800049"/>
     <use xlink:href="#Lato-Regular-25" x="522.800049"/>
    </g>
   </g>
   <g id="text_7">
    <!-- kernel 4.44% -->
    <g transform="translate(190.28659 201.520416) scale(0.06 -0.06)">
     <use xlink:href="#Lato-Regular-6b"/>
     <use xlink:href="#Lato-Regular-65" x="50.800003"/>
     <use xlink:href="#Lato-Regular-72" x="103.600006"/>
     <use xlink:href="#Lato-Regular-6e" x="140.000015"/>
     <use xlink:href="#Lato-Regular-65" x="195.800018"/>
     <use xlink:href="#Lato-Regular-6c" x="248.600021"/>
     <use xlink:href="#Lato-Regular-20" x="272.200027"/>
     <use xlink:href="#Lato-Regular-34" x="297.800034"/>
     <use xlink:href="#Lato-Regular-2e" x="355.800034"/>
     <use xlink:href="#Lato-Regular-34" x="379.40004"/>
     <use xlink:href="#Lato-Regular-34" x="437.40004"/>
     <use xlink:href="#Lato-Regular-25" x="495.40004"/>
    </g>
   </g>
   <g id="text_8">
    <!-- unknown 3.88% -->
    <g transform="translate(213.67591 195.739489) scale(0.06 -0.06)">
     <defs>
      <path id="Lato-Regular-77" d="M 4922 3242 
L 3872 0 
L 3421 0 
Q 3338 0 3306 109 
L 2589 2307 
Q 2563 2381 2547 2456 
Q 2531 2531 2515 2605 
Q 2499 2531 2483 2456 
Q 2467 2381 2442 2304 
L 1712 109 
Q 1683 0 1584 0 
L 1155 0 
L 106 3242 
L 554 3242 
Q 621 3242 667 3206 
Q 714 3171 730 3123 
L 1350 1037 
Q 1405 806 1437 602 
Q 1466 707 1496 816 
Q 1526 925 1562 1037 
L 2246 3136 
Q 2262 3184 2302 3216 
Q 2342 3248 2400 3248 
L 2650 3248 
Q 2714 3248 2755 3216 
Q 2797 3184 2813 3136 
L 3482 1037 
Q 3517 925 3545 816 
Q 3574 707 3600 602 
Q 3616 707 3640 814 
Q 3664 922 3693 1037 
L 4326 3123 
Q 4342 3174 4387 3208 
Q 4432 3242 4493 3242 
L 4922 3242 
z
" transform="scale(0.015625)"/>
     </defs>
     <use xlink:href="#Lato-Regular-75"/>
     <use xlink:href="#Lato-Regular-6e" x="55.75"/>
     <use xlink:href="#Lato-Regular-6b" x="111.550003"/>
     <use xlink:href="#Lato-Regular-6e" x="162.350006"/>
     <use xlink:href="#Lato-Regular-6f" x="218.150009"/>
     <use xlink:href="#Lato-Regular-77" x="274.850021"/>
     <use xlink:href="#Lato-Regular-6e" x="353.40004"/>
     <use xlink:href="#Lato-Regular-20" x="409.200043"/>
     <use xlink:href="#Lato-Regular-33" x="434.800049"/>
     <use xlink:href="#Lato-Regular-2e" x="492.800049"/>
     <use xlink:href="#Lato-Regular-38" x="516.400055"/>
     <use xlink:href="#Lato-Regular-38" x="574.400055"/>
     <use xlink:href="#Lato-Regular-25" x="632.400055"/>
    </g>
   </g>
   <g id="text_9">
    <!-- int 3.38% -->
    <g transform="translate(232.255909 185.898943) scale(0.06 -0.06)">
     <use xlink:href="#Lato-Regular-69"/>
     <use xlink:href="#Lato-Regular-6e" x="24"/>
     <use xlink:href="#Lato-Regular-74" x="79.800003"/>
     <use xlink:href="#Lato-Regular-20" x="115.650009"/>
     <use xlink:href="#Lato-Regular-33" x="141.250015"/>
     <use xlink:href="#Lato-Regular-2e" x="199.250015"/>
     <use xlink:href="#Lato-Regular-33" x="222.850021"/>
     <use xlink:href="#Lato-Regular-38" x="280.850021"/>
     <use xlink:href="#Lato-Regular-25" x="338.850021"/>
    </g>
   </g>
   <g id="text_10">
    <!-- libc 3.30% -->
    <g transform="translate(246.97272 173.353273) scale(0.06 -0.06)">
     <defs>
      <path id="Lato-Regular-30" d="M 3520 2291 
Q 3520 1690 3390 1250 
Q 3261 810 3037 522 
Q 2813 234 2507 93 
Q 2202 -48 1853 -48 
Q 1501 -48 1198 93 
Q 896 234 672 522 
Q 448 810 320 1250 
Q 192 1690 192 2291 
Q 192 2893 320 3334 
Q 448 3776 672 4065 
Q 896 4355 1198 4496 
Q 1501 4637 1853 4637 
Q 2202 4637 2507 4496 
Q 2813 4355 3037 4065 
Q 3261 3776 3390 3334 
Q 3520 2893 3520 2291 
z
M 2928 2291 
Q 2928 2816 2840 3173 
Q 2752 3530 2603 3747 
Q 2454 3965 2259 4059 
Q 2064 4154 1853 4154 
Q 1642 4154 1446 4059 
Q 1251 3965 1104 3747 
Q 957 3530 869 3173 
Q 781 2816 781 2291 
Q 781 1766 869 1411 
Q 957 1056 1104 838 
Q 1251 621 1446 526 
Q 1642 432 1853 432 
Q 2064 432 2259 526 
Q 2454 621 2603 838 
Q 2752 1056 2840 1411 
Q 2928 1766 2928 2291 
z
" transform="scale(0.015625)"/>
     </defs>
     <use xlink:href="#Lato-Regular-6c"/>
     <use xlink:href="#Lato-Regular-69" x="23.600006"/>
     <use xlink:href="#Lato-Regular-62" x="47.600006"/>
     <use xlink:href="#Lato-Regular-63" x="103.600006"/>
     <use xlink:href="#Lato-Regular-20" x="151.350006"/>
     <use xlink:href="#Lato-Regular-33" x="176.950012"/>
     <use xlink:href="#Lato-Regular-2e" x="234.950012"/>
     <use xlink:href="#Lato-Regular-33" x="258.550018"/>
     <use xlink:href="#Lato-Regular-30" x="316.550018"/>
     <use xlink:href="#Lato-Regular-25" x="374.550018"/>
    </g>
   </g>
  </g>
 </g>
 <defs>
  <pattern id="h1705d55395" patternUnits="userSpaceOnUse" x="0" y="0" width="72" height="72">
   <rect x="0" y="0" width="73" height="73" fill="#1f77b4"/>
   <path d="M -36 36 
L 36 -36 
M -30 42 
L 42 -30 
M -24 48 
L 48 -24 
M -18 54 
L 54 -18 
M -12 60 
L 60 -12 
M -6 66 
L 66 -6 
M 0 72 
L 72 0 
M 6 78 
L 78 6 
M 12 84 
L 84 12 
M 18 90 
L 90 18 
M 24 96 
L 96 24 
M 30 102 
L 102 30 
M 36 108 
L 108 36 
" style="fill: #000000; stroke: #000000; stroke-width: 1.0; stroke-linecap: butt; stroke-linejoin: miter"/>
  </pattern>
  <pattern id="h2eb3ac573b" patternUnits="userSpaceOnUse" x="0" y="0" width="72" height="72">
   <rect x="0" y="0" width="73" height="73" fill="#8c564b"/>
   <path d="M -36 36 
L 36 -36 
M -30 42 
L 42 -30 
M -24 48 
L 48 -24 
M -18 54 
L 54 -18 
M -12 60 
L 60 -12 
M -6 66 
L 66 -6 
M 0 72 
L 72 0 
M 6 78 
L 78 6 
M 12 84 
L 84 12 
M 18 90 
L 90 18 
M 24 96 
L 96 24 
M 30 102 
L 102 30 
M 36 108 
L 108 36 
" style="fill: #000000; stroke: #000000; stroke-width: 1.0; stroke-linecap: butt; stroke-linejoin: miter"/>
  </pattern>
  <pattern id="he729c1129b" patternUnits="userSpaceOnUse" x="0" y="0" width="72" height="72">
   <rect x="0" y="0" width="73" height="73" fill="#2ca02c"/>
   <path d="M -36 36 
L 36 -36 
M -30 42 
L 42 -30 
M -24 48 
L 48 -24 
M -18 54 
L 54 -18 
M -12 60 
L 60 -12 
M -6 66 
L 66 -6 
M 0 72 
L 72 0 
M 6 78 
L 78 6 
M 12 84 
L 84 12 
M 18 90 
L 90 18 
M 24 96 
L 96 24 
M 30 102 
L 102 30 
M 36 108 
L 108 36 
" style="fill: #000000; stroke: #000000; stroke-width: 1.0; stroke-linecap: butt; stroke-linejoin: miter"/>
  </pattern>
  <pattern id="h39aba051b0" patternUnits="userSpaceOnUse" x="0" y="0" width="72" height="72">
   <rect x="0" y="0" width="73" height="73" fill="#e377c2"/>
   <path d="M -36 36 
L 36 -36 
M -30 42 
L 42 -30 
M -24 48 
L 48 -24 
M -18 54 
L 54 -18 
M -12 60 
L 60 -12 
M -6 66 
L 66 -6 
M 0 72 
L 72 0 
M 6 78 
L 78 6 
M 12 84 
L 84 12 
M 18 90 
L 90 18 
M 24 96 
L 96 24 
M 30 102 
L 102 30 
M 36 108 
L 108 36 
" style="fill: #000000; stroke: #000000; stroke-width: 1.0; stroke-linecap: butt; stroke-linejoin: miter"/>
  </pattern>
  <pattern id="hd94c737468" patternUnits="userSpaceOnUse" x="0" y="0" width="72" height="72">
   <rect x="0" y="0" width="73" height="73" fill="#ff7f0e"/>
   <path d="M -36 36 
L 36 -36 
M -30 42 
L 42 -30 
M -24 48 
L 48 -24 
M -18 54 
L 54 -18 
M -12 60 
L 60 -12 
M -6 66 
L 66 -6 
M 0 72 
L 72 0 
M 6 78 
L 78 6 
M 12 84 
L 84 12 
M 18 90 
L 90 18 
M 24 96 
L 96 24 
M 30 102 
L 102 30 
M 36 108 
L 108 36 
" style="fill: #000000; stroke: #000000; stroke-width: 1.0; stroke-linecap: butt; stroke-linejoin: miter"/>
  </pattern>
  <pattern id="h8f8a3a2c29" patternUnits="userSpaceOnUse" x="0" y="0" width="72" height="72">
   <rect x="0" y="0" width="73" height="73" fill="#d62728"/>
   <path d="M -36 36 
L 36 -36 
M -30 42 
L 42 -30 
M -24 48 
L 48 -24 
M -18 54 
L 54 -18 
M -12 60 
L 60 -12 
M -6 66 
L 66 -6 
M 0 72 
L 72 0 
M 6 78 
L 78 6 
M 12 84 
L 84 12 
M 18 90 
L 90 18 
M 24 96 
L 96 24 
M 30 102 
L 102 30 
M 36 108 
L 108 36 
" style="fill: #000000; stroke: #000000; stroke-width: 1.0; stroke-linecap: butt; stroke-linejoin: miter"/>
  </pattern>
  <pattern id="hfaf831af14" patternUnits="userSpaceOnUse" x="0" y="0" width="72" height="72">
   <rect x="0" y="0" width="73" height="73" fill="#7f7f7f"/>
   <path d="M -36 36 
L 36 -36 
M -30 42 
L 42 -30 
M -24 48 
L 48 -24 
M -18 54 
L 54 -18 
M -12 60 
L 60 -12 
M -6 66 
L 66 -6 
M 0 72 
L 72 0 
M 6 78 
L 78 6 
M 12 84 
L 84 12 
M 18 90 
L 90 18 
M 24 96 
L 96 24 
M 30 102 
L 102 30 
M 36 108 
L 108 36 
" style="fill: #000000; stroke: #000000; stroke-width: 1.0; stroke-linecap: butt; stroke-linejoin: miter"/>
  </pattern>
  <pattern id="h9a4bc1b8a1" patternUnits="userSpaceOnUse" x="0" y="0" width="72" height="72">
   <rect x="0" y="0" width="73" height="73" fill="#17becf"/>
   <path d="M -36 36 
L 36 -36 
M -30 42 
L 42 -30 
M -24 48 
L 48 -24 
M -18 54 
L 54 -18 
M -12 60 
L 60 -12 
M -6 66 
L 66 -6 
M 0 72 
L 72 0 
M 6 78 
L 78 6 
M 12 84 
L 84 12 
M 18 90 
L 90 18 
M 24 96 
L 96 24 
M 30 102 
L 102 30 
M 36 108 
L 108 36 
" style="fill: #000000; stroke: #000000; stroke-width: 1.0; stroke-linecap: butt; stroke-linejoin: miter"/>
  </pattern>
  <pattern id="h15a38bd450" patternUnits="userSpaceOnUse" x="0" y="0" width="72" height="72">
   <rect x="0" y="0" width="73" height="73" fill="#1f77b4"/>
   <path d="M -36 36 
L 36 108 
M -30 30 
L 42 102 
M -24 24 
L 48 96 
M -18 18 
L 54 90 
M -12 12 
L 60 84 
M -6 6 
L 66 78 
M 0 0 
L 72 72 
M 6 -6 
L 78 66 
M 12 -12 
L 84 60 
M 18 -18 
L 90 54 
M 24 -24 
L 96 48 
M 30 -30 
L 102 42 
M 36 -36 
L 108 36 
" style="fill: #000000; stroke: #000000; stroke-width: 1.0; stroke-linecap: butt; stroke-linejoin: miter"/>
  </pattern>
  <pattern id="h09ffbbd795" patternUnits="userSpaceOnUse" x="0" y="0" width="72" height="72">
   <rect x="0" y="0" width="73" height="73" fill="#9467bd"/>
   <path d="M -36 36 
L 36 -36 
M -30 42 
L 42 -30 
M -24 48 
L 48 -24 
M -18 54 
L 54 -18 
M -12 60 
L 60 -12 
M -6 66 
L 66 -6 
M 0 72 
L 72 0 
M 6 78 
L 78 6 
M 12 84 
L 84 12 
M 18 90 
L 90 18 
M 24 96 
L 96 24 
M 30 102 
L 102 30 
M 36 108 
L 108 36 
" style="fill: #000000; stroke: #000000; stroke-width: 1.0; stroke-linecap: butt; stroke-linejoin: miter"/>
  </pattern>
  <pattern id="hb4402eba9b" patternUnits="userSpaceOnUse" x="0" y="0" width="72" height="72">
   <rect x="0" y="0" width="73" height="73" fill="#bcbd22"/>
   <path d="M -36 36 
L 36 -36 
M -30 42 
L 42 -30 
M -24 48 
L 48 -24 
M -18 54 
L 54 -18 
M -12 60 
L 60 -12 
M -6 66 
L 66 -6 
M 0 72 
L 72 0 
M 6 78 
L 78 6 
M 12 84 
L 84 12 
M 18 90 
L 90 18 
M 24 96 
L 96 24 
M 30 102 
L 102 30 
M 36 108 
L 108 36 
" style="fill: #000000; stroke: #000000; stroke-width: 1.0; stroke-linecap: butt; stroke-linejoin: miter"/>
  </pattern>
 </defs>
</svg>
